<mxfile host="Electron" modified="2024-06-20T10:49:36.354Z" agent="Mozilla/5.0 (Windows NT 10.0; Win64; x64) AppleWebKit/537.36 (KHTML, like Gecko) draw.io/24.5.1 Chrome/124.0.6367.207 Electron/30.0.6 Safari/537.36" etag="tUNxryuQCiOGiYyVKV1h" version="24.5.1" type="device" pages="5">
  <diagram name="Page-1" id="fWQ8ynq6gVIJRfzEGPIE">
    <mxGraphModel dx="1434" dy="844" grid="1" gridSize="10" guides="1" tooltips="1" connect="1" arrows="1" fold="1" page="1" pageScale="1" pageWidth="850" pageHeight="1100" math="0" shadow="0">
      <root>
        <mxCell id="0" />
        <mxCell id="1" parent="0" />
        <mxCell id="9HbEqZ2qS-eGFcqu4IC8-6" value="CM_FreqDrive :&amp;nbsp;&lt;div&gt;cmPalletConv&lt;/div&gt;" style="rounded=1;whiteSpace=wrap;html=1;fillColor=#d5e8d4;strokeColor=#82b366;" parent="1" vertex="1">
          <mxGeometry x="40" y="200" width="120" height="60" as="geometry" />
        </mxCell>
        <mxCell id="9HbEqZ2qS-eGFcqu4IC8-8" value="CM_DigitalSensor :&amp;nbsp;&lt;div&gt;cmPalletRearDetect&lt;/div&gt;" style="rounded=1;whiteSpace=wrap;html=1;fillColor=#d5e8d4;strokeColor=#82b366;" parent="1" vertex="1">
          <mxGeometry x="160" y="200" width="120" height="60" as="geometry" />
        </mxCell>
        <mxCell id="9HbEqZ2qS-eGFcqu4IC8-9" value="CM_DigitalSensor :&amp;nbsp;&lt;div&gt;cmPalletTruckDetect&lt;/div&gt;" style="rounded=1;whiteSpace=wrap;html=1;fillColor=#d5e8d4;strokeColor=#82b366;" parent="1" vertex="1">
          <mxGeometry x="280" y="200" width="120" height="60" as="geometry" />
        </mxCell>
        <mxCell id="9HbEqZ2qS-eGFcqu4IC8-10" value="CM_DigitalSensor :&amp;nbsp;&lt;div&gt;cmPalletFrontDetect&lt;/div&gt;" style="rounded=1;whiteSpace=wrap;html=1;fillColor=#d5e8d4;strokeColor=#82b366;" parent="1" vertex="1">
          <mxGeometry x="400" y="200" width="120" height="60" as="geometry" />
        </mxCell>
        <mxCell id="9HbEqZ2qS-eGFcqu4IC8-11" value="CM_DigitalSensor :&amp;nbsp;&lt;div&gt;cmPalletAtAlignPos&lt;/div&gt;" style="rounded=1;whiteSpace=wrap;html=1;fillColor=#d5e8d4;strokeColor=#82b366;" parent="1" vertex="1">
          <mxGeometry x="520" y="200" width="120" height="60" as="geometry" />
        </mxCell>
        <mxCell id="9HbEqZ2qS-eGFcqu4IC8-12" value="CM_DigitalSensor :&amp;nbsp;&lt;div&gt;cmPalletAtDockingPos&lt;/div&gt;" style="rounded=1;whiteSpace=wrap;html=1;fillColor=#d5e8d4;strokeColor=#82b366;" parent="1" vertex="1">
          <mxGeometry x="640" y="200" width="120" height="60" as="geometry" />
        </mxCell>
        <mxCell id="9HbEqZ2qS-eGFcqu4IC8-13" value="EM_PalletConveyor : emPalletConveyor" style="rounded=1;whiteSpace=wrap;html=1;fillColor=#fff2cc;strokeColor=#d6b656;" parent="1" vertex="1">
          <mxGeometry x="40" y="140" width="720" height="60" as="geometry" />
        </mxCell>
        <mxCell id="9HbEqZ2qS-eGFcqu4IC8-15" value="CM_DigitalSensor :&amp;nbsp;&lt;div&gt;cmDoorOpenInspectPos&lt;/div&gt;" style="rounded=1;whiteSpace=wrap;html=1;fillColor=#d5e8d4;strokeColor=#82b366;" parent="1" vertex="1">
          <mxGeometry x="800" y="200" width="120" height="60" as="geometry" />
        </mxCell>
        <mxCell id="9HbEqZ2qS-eGFcqu4IC8-16" value="CM_DigitalSensor :&amp;nbsp;&lt;div&gt;cmDoorOpenAlignPos&lt;/div&gt;" style="rounded=1;whiteSpace=wrap;html=1;fillColor=#d5e8d4;strokeColor=#82b366;" parent="1" vertex="1">
          <mxGeometry x="920" y="200" width="120" height="60" as="geometry" />
        </mxCell>
        <mxCell id="9HbEqZ2qS-eGFcqu4IC8-20" value="EM_DoorOpenCheck : emDoorOpenCheck" style="rounded=1;whiteSpace=wrap;html=1;fillColor=#fff2cc;strokeColor=#d6b656;fontStyle=1" parent="1" vertex="1">
          <mxGeometry x="800" y="140" width="240" height="60" as="geometry" />
        </mxCell>
        <mxCell id="9HbEqZ2qS-eGFcqu4IC8-21" value="UN_PalletTrack : unPalletTrack" style="rounded=1;whiteSpace=wrap;html=1;fillColor=#dae8fc;strokeColor=#6c8ebf;" parent="1" vertex="1">
          <mxGeometry x="40" y="80" width="1470" height="60" as="geometry" />
        </mxCell>
        <mxCell id="9HbEqZ2qS-eGFcqu4IC8-23" value="EM_PalletAlgnment : emPalletAlignment" style="rounded=1;whiteSpace=wrap;html=1;fillColor=#fff2cc;strokeColor=#d6b656;fontStyle=1" parent="1" vertex="1">
          <mxGeometry x="1080" y="140" width="120" height="60" as="geometry" />
        </mxCell>
        <mxCell id="9HbEqZ2qS-eGFcqu4IC8-24" value="CM_Valve :&amp;nbsp;&lt;div&gt;cmAlignmentValve&lt;/div&gt;" style="rounded=1;whiteSpace=wrap;html=1;fillColor=#d5e8d4;strokeColor=#82b366;" parent="1" vertex="1">
          <mxGeometry x="1080" y="200" width="120" height="60" as="geometry" />
        </mxCell>
        <mxCell id="CRSCdY6GsFNGq4X6_SDM-1" value="E040580&lt;div&gt;&lt;span style=&quot;background-color: initial;&quot;&gt;Cleanroom Connect&lt;/span&gt;&lt;/div&gt;" style="rounded=1;whiteSpace=wrap;html=1;" parent="1" vertex="1">
          <mxGeometry x="400" y="440" width="160" height="80" as="geometry" />
        </mxCell>
        <mxCell id="CRSCdY6GsFNGq4X6_SDM-2" value="E040578&lt;div&gt;&lt;span style=&quot;background-color: initial;&quot;&gt;Pallet Conveyor&lt;/span&gt;&lt;/div&gt;" style="rounded=1;whiteSpace=wrap;html=1;" parent="1" vertex="1">
          <mxGeometry x="440" y="540" width="160" height="80" as="geometry" />
        </mxCell>
        <mxCell id="CRSCdY6GsFNGq4X6_SDM-3" value="E040579&lt;div&gt;&lt;span style=&quot;background-color: initial;&quot;&gt;Docking Cabin&lt;/span&gt;&lt;/div&gt;" style="rounded=1;whiteSpace=wrap;html=1;" parent="1" vertex="1">
          <mxGeometry x="440" y="640" width="160" height="80" as="geometry" />
        </mxCell>
        <mxCell id="CRSCdY6GsFNGq4X6_SDM-4" value="E041204&lt;div&gt;&lt;span style=&quot;background-color: initial;&quot;&gt;Lifting Transport&lt;/span&gt;&lt;/div&gt;" style="rounded=1;whiteSpace=wrap;html=1;" parent="1" vertex="1">
          <mxGeometry x="440" y="740" width="160" height="80" as="geometry" />
        </mxCell>
        <mxCell id="CRSCdY6GsFNGq4X6_SDM-5" value="E042233&lt;div&gt;&lt;span style=&quot;background-color: initial;&quot;&gt;Electrical Cabinet&lt;/span&gt;&lt;/div&gt;" style="rounded=1;whiteSpace=wrap;html=1;fontStyle=1" parent="1" vertex="1">
          <mxGeometry x="440" y="840" width="160" height="80" as="geometry" />
        </mxCell>
        <mxCell id="CRSCdY6GsFNGq4X6_SDM-6" value="E041023&lt;div&gt;&lt;span style=&quot;background-color: initial;&quot;&gt;Docking Interface&lt;/span&gt;&lt;/div&gt;" style="rounded=1;whiteSpace=wrap;html=1;" parent="1" vertex="1">
          <mxGeometry x="640" y="640" width="160" height="80" as="geometry" />
        </mxCell>
        <mxCell id="CRSCdY6GsFNGq4X6_SDM-7" value="E000000&amp;nbsp;&lt;span style=&quot;background-color: initial;&quot;&gt;Cabin&lt;/span&gt;" style="rounded=1;whiteSpace=wrap;html=1;" parent="1" vertex="1">
          <mxGeometry x="820" y="640" width="160" height="80" as="geometry" />
        </mxCell>
        <mxCell id="CRSCdY6GsFNGq4X6_SDM-8" value="E041299&amp;nbsp;&lt;span style=&quot;background-color: initial;&quot;&gt;Door Dynaco D313-1000&lt;/span&gt;" style="rounded=1;whiteSpace=wrap;html=1;" parent="1" vertex="1">
          <mxGeometry x="1000" y="640" width="160" height="80" as="geometry" />
        </mxCell>
        <mxCell id="CRSCdY6GsFNGq4X6_SDM-9" value="E000000&amp;nbsp;&lt;span style=&quot;background-color: initial;&quot;&gt;Door xxxxxx&lt;/span&gt;" style="rounded=1;whiteSpace=wrap;html=1;" parent="1" vertex="1">
          <mxGeometry x="1180" y="640" width="160" height="80" as="geometry" />
        </mxCell>
        <mxCell id="CRSCdY6GsFNGq4X6_SDM-10" value="E041182&amp;nbsp;&lt;span style=&quot;background-color: initial;&quot;&gt;Base Frame&lt;/span&gt;" style="rounded=1;whiteSpace=wrap;html=1;" parent="1" vertex="1">
          <mxGeometry x="1360" y="640" width="160" height="80" as="geometry" />
        </mxCell>
        <mxCell id="CRSCdY6GsFNGq4X6_SDM-11" value="E041144 Lift Transport Unit" style="rounded=1;whiteSpace=wrap;html=1;" parent="1" vertex="1">
          <mxGeometry x="640" y="740" width="160" height="80" as="geometry" />
        </mxCell>
        <mxCell id="CRSCdY6GsFNGq4X6_SDM-12" value="E041175 Scissor Lift" style="rounded=1;whiteSpace=wrap;html=1;" parent="1" vertex="1">
          <mxGeometry x="820" y="740" width="160" height="80" as="geometry" />
        </mxCell>
        <mxCell id="CRSCdY6GsFNGq4X6_SDM-13" value="E041208&amp;nbsp;Lift Base Plate" style="rounded=1;whiteSpace=wrap;html=1;" parent="1" vertex="1">
          <mxGeometry x="1000" y="740" width="160" height="80" as="geometry" />
        </mxCell>
      </root>
    </mxGraphModel>
  </diagram>
  <diagram id="xq9mUH4SvS3keDYs4Cg8" name="FUMO (Docking)">
    <mxGraphModel dx="2284" dy="844" grid="1" gridSize="10" guides="1" tooltips="1" connect="1" arrows="1" fold="1" page="1" pageScale="1" pageWidth="850" pageHeight="1100" math="0" shadow="0">
      <root>
        <mxCell id="0" />
        <mxCell id="1" parent="0" />
        <mxCell id="QTTLoTGfmT-ES7QoQZG1-93" value="" style="rounded=1;whiteSpace=wrap;html=1;" parent="1" vertex="1">
          <mxGeometry x="40" y="1600" width="520" height="480" as="geometry" />
        </mxCell>
        <mxCell id="OVZDRWxxNCcbgo4eigp_-1" value="&lt;div&gt;cmSpeedDoorOuter :&lt;/div&gt;&lt;div&gt;CM_SpeedDoor&lt;br&gt;&lt;/div&gt;" style="rounded=1;whiteSpace=wrap;html=1;fillColor=#d5e8d4;strokeColor=#82b366;" parent="1" vertex="1">
          <mxGeometry x="40" y="380" width="120" height="60" as="geometry" />
        </mxCell>
        <mxCell id="OVZDRWxxNCcbgo4eigp_-65" value="&lt;div&gt;cmValveDocking&lt;/div&gt;&lt;div&gt;ClampsUpper :&lt;/div&gt;&lt;div&gt;CM_ValveWith&lt;/div&gt;&lt;div&gt;DoubleFB&lt;br&gt;&lt;/div&gt;" style="rounded=1;whiteSpace=wrap;html=1;fillColor=#d5e8d4;strokeColor=#82b366;" parent="1" vertex="1">
          <mxGeometry x="320" y="380" width="120" height="60" as="geometry" />
        </mxCell>
        <mxCell id="OVZDRWxxNCcbgo4eigp_-66" value="&lt;div&gt;cmValveDocking&lt;/div&gt;&lt;div&gt;ClampsLower :&lt;/div&gt;&lt;div&gt;&lt;div&gt;CM_ValveWith&lt;/div&gt;&lt;div&gt;DoubleFB&lt;/div&gt;&lt;/div&gt;" style="rounded=1;whiteSpace=wrap;html=1;fillColor=#d5e8d4;strokeColor=#82b366;" parent="1" vertex="1">
          <mxGeometry x="440" y="380" width="120" height="60" as="geometry" />
        </mxCell>
        <mxCell id="OVZDRWxxNCcbgo4eigp_-67" value="emDoors :&lt;div&gt;EM_Doors&lt;br&gt;&lt;/div&gt;" style="rounded=1;whiteSpace=wrap;html=1;fillColor=#fff2cc;strokeColor=#d6b656;" parent="1" vertex="1">
          <mxGeometry x="-200" y="320" width="480" height="60" as="geometry" />
        </mxCell>
        <mxCell id="OVZDRWxxNCcbgo4eigp_-68" value="&amp;nbsp;unCleanroomConnect :&lt;div&gt;UN_CleanroomConnect&lt;/div&gt;" style="rounded=1;whiteSpace=wrap;html=1;fillColor=#dae8fc;strokeColor=#6c8ebf;" parent="1" vertex="1">
          <mxGeometry x="-200" y="260" width="1480" height="60" as="geometry" />
        </mxCell>
        <mxCell id="OVZDRWxxNCcbgo4eigp_-69" value="&lt;div&gt;cmValveUnlocking&lt;/div&gt;&lt;div&gt;&lt;span style=&quot;background-color: initial;&quot;&gt;PinsUpper :&lt;/span&gt;&lt;/div&gt;&lt;div&gt;&lt;div&gt;CM_ValveWith&lt;span style=&quot;background-color: initial;&quot;&gt;FB&lt;/span&gt;&lt;/div&gt;&lt;/div&gt;" style="rounded=1;whiteSpace=wrap;html=1;fillColor=#d5e8d4;strokeColor=#82b366;" parent="1" vertex="1">
          <mxGeometry x="560" y="380" width="120" height="60" as="geometry" />
        </mxCell>
        <mxCell id="OVZDRWxxNCcbgo4eigp_-70" value="&lt;div&gt;cmValveUnlocking&lt;/div&gt;&lt;div&gt;&lt;span style=&quot;background-color: initial;&quot;&gt;PinsLower :&lt;/span&gt;&lt;/div&gt;&lt;div&gt;&lt;div&gt;CM_ValveWith&lt;span style=&quot;background-color: initial;&quot;&gt;FB&lt;/span&gt;&lt;/div&gt;&lt;/div&gt;" style="rounded=1;whiteSpace=wrap;html=1;fillColor=#d5e8d4;strokeColor=#82b366;" parent="1" vertex="1">
          <mxGeometry x="680" y="380" width="120" height="60" as="geometry" />
        </mxCell>
        <mxCell id="OVZDRWxxNCcbgo4eigp_-71" value="emDockingInterface :&lt;div&gt;EM_DockingInterface&lt;/div&gt;" style="rounded=1;whiteSpace=wrap;html=1;fillColor=#fff2cc;strokeColor=#d6b656;" parent="1" vertex="1">
          <mxGeometry x="320" y="320" width="640" height="60" as="geometry" />
        </mxCell>
        <mxCell id="OVZDRWxxNCcbgo4eigp_-72" value="&lt;div&gt;cmDoorLock&lt;/div&gt;&lt;div&gt;Cleanroom :&lt;/div&gt;&lt;div&gt;CM_DoorLock&lt;br&gt;&lt;/div&gt;" style="rounded=1;whiteSpace=wrap;html=1;fillColor=#d5e8d4;strokeColor=#82b366;" parent="1" vertex="1">
          <mxGeometry x="160" y="380" width="120" height="60" as="geometry" />
        </mxCell>
        <mxCell id="OVZDRWxxNCcbgo4eigp_-73" value="&lt;div&gt;cmAirTreatment&lt;span style=&quot;background-color: initial;&quot;&gt;&amp;nbsp;:&lt;/span&gt;&lt;/div&gt;&lt;div&gt;CM_ABN_SATnano&lt;br&gt;&lt;/div&gt;" style="rounded=1;whiteSpace=wrap;html=1;fillColor=#d5e8d4;strokeColor=#82b366;" parent="1" vertex="1">
          <mxGeometry x="1120" y="380" width="120" height="60" as="geometry" />
        </mxCell>
        <mxCell id="OVZDRWxxNCcbgo4eigp_-74" value="emAirTreatment&lt;span style=&quot;background-color: initial;&quot;&gt;&amp;nbsp;:&lt;/span&gt;&lt;div&gt;&lt;div&gt;EM_AirTreatment&lt;/div&gt;&lt;/div&gt;" style="rounded=1;whiteSpace=wrap;html=1;fillColor=#fff2cc;strokeColor=#d6b656;" parent="1" vertex="1">
          <mxGeometry x="1120" y="320" width="120" height="60" as="geometry" />
        </mxCell>
        <mxCell id="OVZDRWxxNCcbgo4eigp_-75" value="Buttons?" style="rounded=1;whiteSpace=wrap;html=1;fillColor=#d5e8d4;strokeColor=#82b366;sketch=1;curveFitting=1;jiggle=2;" parent="1" vertex="1">
          <mxGeometry x="920" y="380" width="120" height="60" as="geometry" />
        </mxCell>
        <mxCell id="OVZDRWxxNCcbgo4eigp_-93" value="&lt;div&gt;&lt;span style=&quot;background-color: initial;&quot;&gt;diBtnToggleLock&lt;/span&gt;&lt;span style=&quot;background-color: initial;&quot;&gt;&amp;nbsp;:&lt;/span&gt;&lt;br&gt;&lt;/div&gt;&lt;div&gt;FB_DigInput&lt;br&gt;&lt;/div&gt;" style="rounded=1;whiteSpace=wrap;html=1;fillColor=#d5e8d4;strokeColor=#82b366;" parent="1" vertex="1">
          <mxGeometry x="-200" y="380" width="120" height="60" as="geometry" />
        </mxCell>
        <mxCell id="QTTLoTGfmT-ES7QoQZG1-1" value="CM_SpeedDoor" style="swimlane;fontStyle=1;align=center;verticalAlign=top;childLayout=stackLayout;horizontal=1;startSize=26;horizontalStack=0;resizeParent=1;resizeParentMax=0;resizeLast=0;collapsible=1;marginBottom=0;whiteSpace=wrap;html=1;" parent="1" vertex="1">
          <mxGeometry x="1120" y="1640" width="160" height="268" as="geometry" />
        </mxCell>
        <mxCell id="QTTLoTGfmT-ES7QoQZG1-2" value="+ p_IsReady: BOOL" style="text;strokeColor=none;fillColor=none;align=left;verticalAlign=top;spacingLeft=4;spacingRight=4;overflow=hidden;rotatable=0;points=[[0,0.5],[1,0.5]];portConstraint=eastwest;whiteSpace=wrap;html=1;" parent="QTTLoTGfmT-ES7QoQZG1-1" vertex="1">
          <mxGeometry y="26" width="160" height="26" as="geometry" />
        </mxCell>
        <mxCell id="QTTLoTGfmT-ES7QoQZG1-3" value="+ p_IsOpened: BOOL" style="text;strokeColor=none;fillColor=none;align=left;verticalAlign=top;spacingLeft=4;spacingRight=4;overflow=hidden;rotatable=0;points=[[0,0.5],[1,0.5]];portConstraint=eastwest;whiteSpace=wrap;html=1;" parent="QTTLoTGfmT-ES7QoQZG1-1" vertex="1">
          <mxGeometry y="52" width="160" height="26" as="geometry" />
        </mxCell>
        <mxCell id="QTTLoTGfmT-ES7QoQZG1-4" value="+ p_IsClosed: BOOL" style="text;strokeColor=none;fillColor=none;align=left;verticalAlign=top;spacingLeft=4;spacingRight=4;overflow=hidden;rotatable=0;points=[[0,0.5],[1,0.5]];portConstraint=eastwest;whiteSpace=wrap;html=1;" parent="QTTLoTGfmT-ES7QoQZG1-1" vertex="1">
          <mxGeometry y="78" width="160" height="26" as="geometry" />
        </mxCell>
        <mxCell id="QTTLoTGfmT-ES7QoQZG1-5" value="+ p_HasError: BOOL" style="text;strokeColor=none;fillColor=none;align=left;verticalAlign=top;spacingLeft=4;spacingRight=4;overflow=hidden;rotatable=0;points=[[0,0.5],[1,0.5]];portConstraint=eastwest;whiteSpace=wrap;html=1;" parent="QTTLoTGfmT-ES7QoQZG1-1" vertex="1">
          <mxGeometry y="104" width="160" height="26" as="geometry" />
        </mxCell>
        <mxCell id="QTTLoTGfmT-ES7QoQZG1-6" value="+ p_LastErrorID: USINT" style="text;strokeColor=none;fillColor=none;align=left;verticalAlign=top;spacingLeft=4;spacingRight=4;overflow=hidden;rotatable=0;points=[[0,0.5],[1,0.5]];portConstraint=eastwest;whiteSpace=wrap;html=1;" parent="QTTLoTGfmT-ES7QoQZG1-1" vertex="1">
          <mxGeometry y="130" width="160" height="26" as="geometry" />
        </mxCell>
        <mxCell id="QTTLoTGfmT-ES7QoQZG1-7" value="" style="line;strokeWidth=1;fillColor=none;align=left;verticalAlign=middle;spacingTop=-1;spacingLeft=3;spacingRight=3;rotatable=0;labelPosition=right;points=[];portConstraint=eastwest;strokeColor=inherit;" parent="QTTLoTGfmT-ES7QoQZG1-1" vertex="1">
          <mxGeometry y="156" width="160" height="8" as="geometry" />
        </mxCell>
        <mxCell id="QTTLoTGfmT-ES7QoQZG1-8" value="+ m_cmdReset(): BOOL" style="text;strokeColor=none;fillColor=none;align=left;verticalAlign=top;spacingLeft=4;spacingRight=4;overflow=hidden;rotatable=0;points=[[0,0.5],[1,0.5]];portConstraint=eastwest;whiteSpace=wrap;html=1;" parent="QTTLoTGfmT-ES7QoQZG1-1" vertex="1">
          <mxGeometry y="164" width="160" height="26" as="geometry" />
        </mxCell>
        <mxCell id="QTTLoTGfmT-ES7QoQZG1-9" value="+ m_cmdOpen(): BOOL" style="text;strokeColor=none;fillColor=none;align=left;verticalAlign=top;spacingLeft=4;spacingRight=4;overflow=hidden;rotatable=0;points=[[0,0.5],[1,0.5]];portConstraint=eastwest;whiteSpace=wrap;html=1;" parent="QTTLoTGfmT-ES7QoQZG1-1" vertex="1">
          <mxGeometry y="190" width="160" height="26" as="geometry" />
        </mxCell>
        <mxCell id="QTTLoTGfmT-ES7QoQZG1-10" value="+ m_cmdClose(): BOOL" style="text;strokeColor=none;fillColor=none;align=left;verticalAlign=top;spacingLeft=4;spacingRight=4;overflow=hidden;rotatable=0;points=[[0,0.5],[1,0.5]];portConstraint=eastwest;whiteSpace=wrap;html=1;" parent="QTTLoTGfmT-ES7QoQZG1-1" vertex="1">
          <mxGeometry y="216" width="160" height="26" as="geometry" />
        </mxCell>
        <mxCell id="QTTLoTGfmT-ES7QoQZG1-11" value="+ m_cmdStop(): BOOL" style="text;strokeColor=none;fillColor=none;align=left;verticalAlign=top;spacingLeft=4;spacingRight=4;overflow=hidden;rotatable=0;points=[[0,0.5],[1,0.5]];portConstraint=eastwest;whiteSpace=wrap;html=1;" parent="QTTLoTGfmT-ES7QoQZG1-1" vertex="1">
          <mxGeometry y="242" width="160" height="26" as="geometry" />
        </mxCell>
        <mxCell id="QTTLoTGfmT-ES7QoQZG1-12" value="CM_CleanroomDoor" style="swimlane;fontStyle=1;align=center;verticalAlign=top;childLayout=stackLayout;horizontal=1;startSize=26;horizontalStack=0;resizeParent=1;resizeParentMax=0;resizeLast=0;collapsible=1;marginBottom=0;whiteSpace=wrap;html=1;" parent="1" vertex="1">
          <mxGeometry x="1320" y="1640" width="160" height="164" as="geometry" />
        </mxCell>
        <mxCell id="QTTLoTGfmT-ES7QoQZG1-13" value="+ p_IsLocked: BOOL" style="text;strokeColor=none;fillColor=none;align=left;verticalAlign=top;spacingLeft=4;spacingRight=4;overflow=hidden;rotatable=0;points=[[0,0.5],[1,0.5]];portConstraint=eastwest;whiteSpace=wrap;html=1;" parent="QTTLoTGfmT-ES7QoQZG1-12" vertex="1">
          <mxGeometry y="26" width="160" height="26" as="geometry" />
        </mxCell>
        <mxCell id="QTTLoTGfmT-ES7QoQZG1-14" value="+ p_IsOpened: BOOL" style="text;strokeColor=none;fillColor=none;align=left;verticalAlign=top;spacingLeft=4;spacingRight=4;overflow=hidden;rotatable=0;points=[[0,0.5],[1,0.5]];portConstraint=eastwest;whiteSpace=wrap;html=1;" parent="QTTLoTGfmT-ES7QoQZG1-12" vertex="1">
          <mxGeometry y="52" width="160" height="26" as="geometry" />
        </mxCell>
        <mxCell id="QTTLoTGfmT-ES7QoQZG1-15" value="+ p_IsClosed: BOOL" style="text;strokeColor=none;fillColor=none;align=left;verticalAlign=top;spacingLeft=4;spacingRight=4;overflow=hidden;rotatable=0;points=[[0,0.5],[1,0.5]];portConstraint=eastwest;whiteSpace=wrap;html=1;" parent="QTTLoTGfmT-ES7QoQZG1-12" vertex="1">
          <mxGeometry y="78" width="160" height="26" as="geometry" />
        </mxCell>
        <mxCell id="QTTLoTGfmT-ES7QoQZG1-16" value="" style="line;strokeWidth=1;fillColor=none;align=left;verticalAlign=middle;spacingTop=-1;spacingLeft=3;spacingRight=3;rotatable=0;labelPosition=right;points=[];portConstraint=eastwest;strokeColor=inherit;" parent="QTTLoTGfmT-ES7QoQZG1-12" vertex="1">
          <mxGeometry y="104" width="160" height="8" as="geometry" />
        </mxCell>
        <mxCell id="QTTLoTGfmT-ES7QoQZG1-17" value="+ m_cmdLock(): BOOL" style="text;strokeColor=none;fillColor=none;align=left;verticalAlign=top;spacingLeft=4;spacingRight=4;overflow=hidden;rotatable=0;points=[[0,0.5],[1,0.5]];portConstraint=eastwest;whiteSpace=wrap;html=1;" parent="QTTLoTGfmT-ES7QoQZG1-12" vertex="1">
          <mxGeometry y="112" width="160" height="26" as="geometry" />
        </mxCell>
        <mxCell id="QTTLoTGfmT-ES7QoQZG1-18" value="+ m_cmdUnlock(): BOOL" style="text;strokeColor=none;fillColor=none;align=left;verticalAlign=top;spacingLeft=4;spacingRight=4;overflow=hidden;rotatable=0;points=[[0,0.5],[1,0.5]];portConstraint=eastwest;whiteSpace=wrap;html=1;" parent="QTTLoTGfmT-ES7QoQZG1-12" vertex="1">
          <mxGeometry y="138" width="160" height="26" as="geometry" />
        </mxCell>
        <mxCell id="QTTLoTGfmT-ES7QoQZG1-19" value="CM_Safety" style="swimlane;fontStyle=1;align=center;verticalAlign=top;childLayout=stackLayout;horizontal=1;startSize=26;horizontalStack=0;resizeParent=1;resizeParentMax=0;resizeLast=0;collapsible=1;marginBottom=0;whiteSpace=wrap;html=1;" parent="1" vertex="1">
          <mxGeometry x="1520" y="1640" width="160" height="138" as="geometry" />
        </mxCell>
        <mxCell id="QTTLoTGfmT-ES7QoQZG1-20" value="+ p_Is: BOOL" style="text;strokeColor=none;fillColor=none;align=left;verticalAlign=top;spacingLeft=4;spacingRight=4;overflow=hidden;rotatable=0;points=[[0,0.5],[1,0.5]];portConstraint=eastwest;whiteSpace=wrap;html=1;" parent="QTTLoTGfmT-ES7QoQZG1-19" vertex="1">
          <mxGeometry y="26" width="160" height="26" as="geometry" />
        </mxCell>
        <mxCell id="QTTLoTGfmT-ES7QoQZG1-21" value="+ p_IsOpened: BOOL" style="text;strokeColor=none;fillColor=none;align=left;verticalAlign=top;spacingLeft=4;spacingRight=4;overflow=hidden;rotatable=0;points=[[0,0.5],[1,0.5]];portConstraint=eastwest;whiteSpace=wrap;html=1;" parent="QTTLoTGfmT-ES7QoQZG1-19" vertex="1">
          <mxGeometry y="52" width="160" height="26" as="geometry" />
        </mxCell>
        <mxCell id="QTTLoTGfmT-ES7QoQZG1-22" value="+ p_IsClosed: BOOL" style="text;strokeColor=none;fillColor=none;align=left;verticalAlign=top;spacingLeft=4;spacingRight=4;overflow=hidden;rotatable=0;points=[[0,0.5],[1,0.5]];portConstraint=eastwest;whiteSpace=wrap;html=1;" parent="QTTLoTGfmT-ES7QoQZG1-19" vertex="1">
          <mxGeometry y="78" width="160" height="26" as="geometry" />
        </mxCell>
        <mxCell id="QTTLoTGfmT-ES7QoQZG1-23" value="" style="line;strokeWidth=1;fillColor=none;align=left;verticalAlign=middle;spacingTop=-1;spacingLeft=3;spacingRight=3;rotatable=0;labelPosition=right;points=[];portConstraint=eastwest;strokeColor=inherit;" parent="QTTLoTGfmT-ES7QoQZG1-19" vertex="1">
          <mxGeometry y="104" width="160" height="8" as="geometry" />
        </mxCell>
        <mxCell id="QTTLoTGfmT-ES7QoQZG1-24" value="+ m_cmdReset(): BOOL" style="text;strokeColor=none;fillColor=none;align=left;verticalAlign=top;spacingLeft=4;spacingRight=4;overflow=hidden;rotatable=0;points=[[0,0.5],[1,0.5]];portConstraint=eastwest;whiteSpace=wrap;html=1;" parent="QTTLoTGfmT-ES7QoQZG1-19" vertex="1">
          <mxGeometry y="112" width="160" height="26" as="geometry" />
        </mxCell>
        <mxCell id="QTTLoTGfmT-ES7QoQZG1-84" value="IDLE" style="rounded=1;whiteSpace=wrap;html=1;" parent="1" vertex="1">
          <mxGeometry x="240" y="1500" width="120" height="60" as="geometry" />
        </mxCell>
        <mxCell id="QTTLoTGfmT-ES7QoQZG1-85" value="DOOR OPENED" style="rounded=1;whiteSpace=wrap;html=1;" parent="1" vertex="1">
          <mxGeometry x="240" y="1630" width="120" height="60" as="geometry" />
        </mxCell>
        <mxCell id="QTTLoTGfmT-ES7QoQZG1-88" style="edgeStyle=orthogonalEdgeStyle;rounded=0;orthogonalLoop=1;jettySize=auto;html=1;exitX=0.5;exitY=1;exitDx=0;exitDy=0;entryX=0.5;entryY=0;entryDx=0;entryDy=0;" parent="1" source="QTTLoTGfmT-ES7QoQZG1-86" target="QTTLoTGfmT-ES7QoQZG1-87" edge="1">
          <mxGeometry relative="1" as="geometry" />
        </mxCell>
        <mxCell id="QTTLoTGfmT-ES7QoQZG1-86" value="RELEASING" style="rounded=1;whiteSpace=wrap;html=1;" parent="1" vertex="1">
          <mxGeometry x="160" y="1870" width="120" height="60" as="geometry" />
        </mxCell>
        <mxCell id="QTTLoTGfmT-ES7QoQZG1-87" value="RELEASED" style="rounded=1;whiteSpace=wrap;html=1;" parent="1" vertex="1">
          <mxGeometry x="160" y="1990" width="120" height="60" as="geometry" />
        </mxCell>
        <mxCell id="QTTLoTGfmT-ES7QoQZG1-89" style="edgeStyle=orthogonalEdgeStyle;rounded=0;orthogonalLoop=1;jettySize=auto;html=1;exitX=0.5;exitY=1;exitDx=0;exitDy=0;entryX=0.5;entryY=0;entryDx=0;entryDy=0;" parent="1" source="QTTLoTGfmT-ES7QoQZG1-90" target="QTTLoTGfmT-ES7QoQZG1-91" edge="1">
          <mxGeometry relative="1" as="geometry" />
        </mxCell>
        <mxCell id="QTTLoTGfmT-ES7QoQZG1-90" value="LOCKING" style="rounded=1;whiteSpace=wrap;html=1;" parent="1" vertex="1">
          <mxGeometry x="320" y="1870" width="120" height="60" as="geometry" />
        </mxCell>
        <mxCell id="QTTLoTGfmT-ES7QoQZG1-91" value="LOCKED" style="rounded=1;whiteSpace=wrap;html=1;" parent="1" vertex="1">
          <mxGeometry x="320" y="1990" width="120" height="60" as="geometry" />
        </mxCell>
        <mxCell id="QTTLoTGfmT-ES7QoQZG1-92" value="ERROR" style="rounded=1;whiteSpace=wrap;html=1;" parent="1" vertex="1">
          <mxGeometry x="240" y="2150" width="120" height="60" as="geometry" />
        </mxCell>
        <mxCell id="QTTLoTGfmT-ES7QoQZG1-94" value="" style="endArrow=classic;html=1;rounded=0;exitX=0.5;exitY=1;exitDx=0;exitDy=0;entryX=0.5;entryY=0;entryDx=0;entryDy=0;" parent="1" source="QTTLoTGfmT-ES7QoQZG1-93" target="QTTLoTGfmT-ES7QoQZG1-92" edge="1">
          <mxGeometry width="50" height="50" relative="1" as="geometry">
            <mxPoint x="600" y="1560" as="sourcePoint" />
            <mxPoint x="650" y="1510" as="targetPoint" />
          </mxGeometry>
        </mxCell>
        <mxCell id="QTTLoTGfmT-ES7QoQZG1-95" value="" style="endArrow=classic;html=1;rounded=0;edgeStyle=orthogonalEdgeStyle;" parent="1" source="QTTLoTGfmT-ES7QoQZG1-84" target="QTTLoTGfmT-ES7QoQZG1-98" edge="1">
          <mxGeometry width="50" height="50" relative="1" as="geometry">
            <mxPoint x="120" y="1480" as="sourcePoint" />
            <mxPoint x="140" y="1550" as="targetPoint" />
            <Array as="points">
              <mxPoint x="300" y="1580" />
              <mxPoint x="200" y="1580" />
              <mxPoint x="200" y="1790" />
            </Array>
          </mxGeometry>
        </mxCell>
        <mxCell id="QTTLoTGfmT-ES7QoQZG1-96" value="" style="endArrow=classic;html=1;rounded=0;edgeStyle=orthogonalEdgeStyle;" parent="1" source="QTTLoTGfmT-ES7QoQZG1-84" target="QTTLoTGfmT-ES7QoQZG1-87" edge="1">
          <mxGeometry width="50" height="50" relative="1" as="geometry">
            <mxPoint x="310" y="1570" as="sourcePoint" />
            <mxPoint x="150" y="1650" as="targetPoint" />
            <Array as="points">
              <mxPoint x="300" y="1580" />
              <mxPoint x="80" y="1580" />
              <mxPoint x="80" y="2020" />
            </Array>
          </mxGeometry>
        </mxCell>
        <mxCell id="QTTLoTGfmT-ES7QoQZG1-97" value="" style="endArrow=classic;html=1;rounded=0;edgeStyle=orthogonalEdgeStyle;" parent="1" source="QTTLoTGfmT-ES7QoQZG1-84" target="QTTLoTGfmT-ES7QoQZG1-91" edge="1">
          <mxGeometry width="50" height="50" relative="1" as="geometry">
            <mxPoint x="310" y="1570" as="sourcePoint" />
            <mxPoint x="250" y="1800" as="targetPoint" />
            <Array as="points">
              <mxPoint x="300" y="1580" />
              <mxPoint x="520" y="1580" />
              <mxPoint x="520" y="2020" />
            </Array>
          </mxGeometry>
        </mxCell>
        <mxCell id="QTTLoTGfmT-ES7QoQZG1-98" value="DOOR CLOSED" style="rounded=1;whiteSpace=wrap;html=1;" parent="1" vertex="1">
          <mxGeometry x="240" y="1750" width="120" height="60" as="geometry" />
        </mxCell>
        <mxCell id="QTTLoTGfmT-ES7QoQZG1-99" style="edgeStyle=orthogonalEdgeStyle;rounded=0;orthogonalLoop=1;jettySize=auto;html=1;" parent="1" source="QTTLoTGfmT-ES7QoQZG1-85" target="QTTLoTGfmT-ES7QoQZG1-98" edge="1">
          <mxGeometry relative="1" as="geometry">
            <mxPoint x="470" y="1700" as="sourcePoint" />
            <mxPoint x="470" y="1760" as="targetPoint" />
          </mxGeometry>
        </mxCell>
        <mxCell id="QTTLoTGfmT-ES7QoQZG1-100" value="" style="endArrow=classic;html=1;rounded=0;edgeStyle=orthogonalEdgeStyle;" parent="1" source="QTTLoTGfmT-ES7QoQZG1-84" target="QTTLoTGfmT-ES7QoQZG1-85" edge="1">
          <mxGeometry width="50" height="50" relative="1" as="geometry">
            <mxPoint x="310" y="1570" as="sourcePoint" />
            <mxPoint x="250" y="1800" as="targetPoint" />
            <Array as="points">
              <mxPoint x="300" y="1620" />
              <mxPoint x="300" y="1620" />
            </Array>
          </mxGeometry>
        </mxCell>
        <mxCell id="QTTLoTGfmT-ES7QoQZG1-101" style="edgeStyle=orthogonalEdgeStyle;rounded=0;orthogonalLoop=1;jettySize=auto;html=1;" parent="1" source="QTTLoTGfmT-ES7QoQZG1-98" target="QTTLoTGfmT-ES7QoQZG1-86" edge="1">
          <mxGeometry relative="1" as="geometry">
            <mxPoint x="610" y="1670" as="sourcePoint" />
            <mxPoint x="600" y="1810" as="targetPoint" />
          </mxGeometry>
        </mxCell>
        <mxCell id="QTTLoTGfmT-ES7QoQZG1-102" style="edgeStyle=orthogonalEdgeStyle;rounded=0;orthogonalLoop=1;jettySize=auto;html=1;" parent="1" source="QTTLoTGfmT-ES7QoQZG1-98" target="QTTLoTGfmT-ES7QoQZG1-90" edge="1">
          <mxGeometry relative="1" as="geometry">
            <mxPoint x="310" y="1820" as="sourcePoint" />
            <mxPoint x="230" y="1880" as="targetPoint" />
          </mxGeometry>
        </mxCell>
        <mxCell id="QTTLoTGfmT-ES7QoQZG1-103" style="edgeStyle=orthogonalEdgeStyle;rounded=0;orthogonalLoop=1;jettySize=auto;html=1;" parent="1" source="QTTLoTGfmT-ES7QoQZG1-87" target="QTTLoTGfmT-ES7QoQZG1-84" edge="1">
          <mxGeometry relative="1" as="geometry">
            <mxPoint x="230" y="1940" as="sourcePoint" />
            <mxPoint x="230" y="2000" as="targetPoint" />
            <Array as="points">
              <mxPoint x="220" y="2120" />
              <mxPoint x="-20" y="2120" />
              <mxPoint x="-20" y="1530" />
            </Array>
          </mxGeometry>
        </mxCell>
        <mxCell id="QTTLoTGfmT-ES7QoQZG1-104" style="edgeStyle=orthogonalEdgeStyle;rounded=0;orthogonalLoop=1;jettySize=auto;html=1;" parent="1" source="QTTLoTGfmT-ES7QoQZG1-91" target="QTTLoTGfmT-ES7QoQZG1-84" edge="1">
          <mxGeometry relative="1" as="geometry">
            <mxPoint x="230" y="2060" as="sourcePoint" />
            <mxPoint x="250" y="1540" as="targetPoint" />
            <Array as="points">
              <mxPoint x="380" y="2120" />
              <mxPoint x="-20" y="2120" />
              <mxPoint x="-20" y="1530" />
            </Array>
          </mxGeometry>
        </mxCell>
        <mxCell id="QTTLoTGfmT-ES7QoQZG1-106" style="edgeStyle=orthogonalEdgeStyle;rounded=0;orthogonalLoop=1;jettySize=auto;html=1;" parent="1" source="QTTLoTGfmT-ES7QoQZG1-92" target="QTTLoTGfmT-ES7QoQZG1-84" edge="1">
          <mxGeometry relative="1" as="geometry">
            <mxPoint x="390" y="2060" as="sourcePoint" />
            <mxPoint x="250" y="1540" as="targetPoint" />
            <Array as="points">
              <mxPoint x="-20" y="2180" />
              <mxPoint x="-20" y="1530" />
            </Array>
          </mxGeometry>
        </mxCell>
        <mxCell id="QTTLoTGfmT-ES7QoQZG1-107" value="" style="endArrow=classic;html=1;rounded=0;" parent="1" source="QTTLoTGfmT-ES7QoQZG1-91" target="QTTLoTGfmT-ES7QoQZG1-86" edge="1">
          <mxGeometry width="50" height="50" relative="1" as="geometry">
            <mxPoint x="500" y="1850" as="sourcePoint" />
            <mxPoint x="550" y="1800" as="targetPoint" />
          </mxGeometry>
        </mxCell>
        <mxCell id="QTTLoTGfmT-ES7QoQZG1-108" value="" style="endArrow=classic;html=1;rounded=0;" parent="1" source="QTTLoTGfmT-ES7QoQZG1-87" target="QTTLoTGfmT-ES7QoQZG1-90" edge="1">
          <mxGeometry width="50" height="50" relative="1" as="geometry">
            <mxPoint x="350" y="2000" as="sourcePoint" />
            <mxPoint x="270" y="1940" as="targetPoint" />
          </mxGeometry>
        </mxCell>
        <mxCell id="QTTLoTGfmT-ES7QoQZG1-109" value="EM_Base" style="swimlane;fontStyle=1;align=center;verticalAlign=top;childLayout=stackLayout;horizontal=1;startSize=26;horizontalStack=0;resizeParent=1;resizeParentMax=0;resizeLast=0;collapsible=1;marginBottom=0;whiteSpace=wrap;html=1;" parent="1" vertex="1">
          <mxGeometry x="1440" y="520" width="160" height="242" as="geometry">
            <mxRectangle x="360" y="520" width="90" height="30" as="alternateBounds" />
          </mxGeometry>
        </mxCell>
        <mxCell id="QTTLoTGfmT-ES7QoQZG1-115" value="+ m_Main(): BOOL" style="text;strokeColor=none;fillColor=none;align=left;verticalAlign=top;spacingLeft=4;spacingRight=4;overflow=hidden;rotatable=0;points=[[0,0.5],[1,0.5]];portConstraint=eastwest;whiteSpace=wrap;html=1;" parent="QTTLoTGfmT-ES7QoQZG1-109" vertex="1">
          <mxGeometry y="26" width="160" height="26" as="geometry" />
        </mxCell>
        <mxCell id="QTTLoTGfmT-ES7QoQZG1-116" value="" style="line;strokeWidth=1;fillColor=none;align=left;verticalAlign=middle;spacingTop=-1;spacingLeft=3;spacingRight=3;rotatable=0;labelPosition=right;points=[];portConstraint=eastwest;strokeColor=inherit;" parent="QTTLoTGfmT-ES7QoQZG1-109" vertex="1">
          <mxGeometry y="52" width="160" height="8" as="geometry" />
        </mxCell>
        <mxCell id="QTTLoTGfmT-ES7QoQZG1-117" value="# _m_Init(): BOOL" style="text;strokeColor=none;fillColor=none;align=left;verticalAlign=top;spacingLeft=4;spacingRight=4;overflow=hidden;rotatable=0;points=[[0,0.5],[1,0.5]];portConstraint=eastwest;whiteSpace=wrap;html=1;" parent="QTTLoTGfmT-ES7QoQZG1-109" vertex="1">
          <mxGeometry y="60" width="160" height="26" as="geometry" />
        </mxCell>
        <mxCell id="QTTLoTGfmT-ES7QoQZG1-118" value="# _m_Inputs: BOOL" style="text;strokeColor=none;fillColor=none;align=left;verticalAlign=top;spacingLeft=4;spacingRight=4;overflow=hidden;rotatable=0;points=[[0,0.5],[1,0.5]];portConstraint=eastwest;whiteSpace=wrap;html=1;" parent="QTTLoTGfmT-ES7QoQZG1-109" vertex="1">
          <mxGeometry y="86" width="160" height="26" as="geometry" />
        </mxCell>
        <mxCell id="QTTLoTGfmT-ES7QoQZG1-134" value="# _m_Params: BOOL" style="text;strokeColor=none;fillColor=none;align=left;verticalAlign=top;spacingLeft=4;spacingRight=4;overflow=hidden;rotatable=0;points=[[0,0.5],[1,0.5]];portConstraint=eastwest;whiteSpace=wrap;html=1;" parent="QTTLoTGfmT-ES7QoQZG1-109" vertex="1">
          <mxGeometry y="112" width="160" height="26" as="geometry" />
        </mxCell>
        <mxCell id="QTTLoTGfmT-ES7QoQZG1-119" value="# _m_Hmi(): BOOL" style="text;strokeColor=none;fillColor=none;align=left;verticalAlign=top;spacingLeft=4;spacingRight=4;overflow=hidden;rotatable=0;points=[[0,0.5],[1,0.5]];portConstraint=eastwest;whiteSpace=wrap;html=1;" parent="QTTLoTGfmT-ES7QoQZG1-109" vertex="1">
          <mxGeometry y="138" width="160" height="26" as="geometry" />
        </mxCell>
        <mxCell id="QTTLoTGfmT-ES7QoQZG1-120" value="# _m_Devices(): BOOL" style="text;strokeColor=none;fillColor=none;align=left;verticalAlign=top;spacingLeft=4;spacingRight=4;overflow=hidden;rotatable=0;points=[[0,0.5],[1,0.5]];portConstraint=eastwest;whiteSpace=wrap;html=1;" parent="QTTLoTGfmT-ES7QoQZG1-109" vertex="1">
          <mxGeometry y="164" width="160" height="26" as="geometry" />
        </mxCell>
        <mxCell id="QTTLoTGfmT-ES7QoQZG1-121" value="# _m_Alarms(): BOOL" style="text;strokeColor=none;fillColor=none;align=left;verticalAlign=top;spacingLeft=4;spacingRight=4;overflow=hidden;rotatable=0;points=[[0,0.5],[1,0.5]];portConstraint=eastwest;whiteSpace=wrap;html=1;" parent="QTTLoTGfmT-ES7QoQZG1-109" vertex="1">
          <mxGeometry y="190" width="160" height="26" as="geometry" />
        </mxCell>
        <mxCell id="QTTLoTGfmT-ES7QoQZG1-122" value="# _m_Outputs: BOOL" style="text;strokeColor=none;fillColor=none;align=left;verticalAlign=top;spacingLeft=4;spacingRight=4;overflow=hidden;rotatable=0;points=[[0,0.5],[1,0.5]];portConstraint=eastwest;whiteSpace=wrap;html=1;" parent="QTTLoTGfmT-ES7QoQZG1-109" vertex="1">
          <mxGeometry y="216" width="160" height="26" as="geometry" />
        </mxCell>
        <mxCell id="QTTLoTGfmT-ES7QoQZG1-123" value="I_EM_Base" style="swimlane;fontStyle=1;align=center;verticalAlign=top;childLayout=stackLayout;horizontal=1;startSize=26;horizontalStack=0;resizeParent=1;resizeParentMax=0;resizeLast=0;collapsible=1;marginBottom=0;whiteSpace=wrap;html=1;" parent="1" vertex="1">
          <mxGeometry x="1680" y="560" width="200" height="130" as="geometry">
            <mxRectangle x="600" y="920" width="80" height="30" as="alternateBounds" />
          </mxGeometry>
        </mxCell>
        <mxCell id="QTTLoTGfmT-ES7QoQZG1-125" value="+ p_bStaEnabled: BOOL" style="text;strokeColor=none;fillColor=none;align=left;verticalAlign=top;spacingLeft=4;spacingRight=4;overflow=hidden;rotatable=0;points=[[0,0.5],[1,0.5]];portConstraint=eastwest;whiteSpace=wrap;html=1;" parent="QTTLoTGfmT-ES7QoQZG1-123" vertex="1">
          <mxGeometry y="26" width="200" height="26" as="geometry" />
        </mxCell>
        <mxCell id="QTTLoTGfmT-ES7QoQZG1-126" value="+ p_bStaError: BOOL" style="text;strokeColor=none;fillColor=none;align=left;verticalAlign=top;spacingLeft=4;spacingRight=4;overflow=hidden;rotatable=0;points=[[0,0.5],[1,0.5]];portConstraint=eastwest;whiteSpace=wrap;html=1;" parent="QTTLoTGfmT-ES7QoQZG1-123" vertex="1">
          <mxGeometry y="52" width="200" height="26" as="geometry" />
        </mxCell>
        <mxCell id="QTTLoTGfmT-ES7QoQZG1-127" value="+ p_eCtrlMode: E_CtrlMode" style="text;strokeColor=none;fillColor=none;align=left;verticalAlign=top;spacingLeft=4;spacingRight=4;overflow=hidden;rotatable=0;points=[[0,0.5],[1,0.5]];portConstraint=eastwest;whiteSpace=wrap;html=1;" parent="QTTLoTGfmT-ES7QoQZG1-123" vertex="1">
          <mxGeometry y="78" width="200" height="26" as="geometry" />
        </mxCell>
        <mxCell id="QTTLoTGfmT-ES7QoQZG1-129" value="+ p_sNameEM: STRING" style="text;strokeColor=none;fillColor=none;align=left;verticalAlign=top;spacingLeft=4;spacingRight=4;overflow=hidden;rotatable=0;points=[[0,0.5],[1,0.5]];portConstraint=eastwest;whiteSpace=wrap;html=1;" parent="QTTLoTGfmT-ES7QoQZG1-123" vertex="1">
          <mxGeometry y="104" width="200" height="26" as="geometry" />
        </mxCell>
        <mxCell id="QTTLoTGfmT-ES7QoQZG1-133" value="" style="endArrow=diamondThin;endFill=1;endSize=24;html=1;rounded=0;edgeStyle=orthogonalEdgeStyle;" parent="1" source="QTTLoTGfmT-ES7QoQZG1-123" target="QTTLoTGfmT-ES7QoQZG1-109" edge="1">
          <mxGeometry width="160" relative="1" as="geometry">
            <mxPoint x="1630" y="633" as="sourcePoint" />
            <mxPoint x="1600" y="661" as="targetPoint" />
          </mxGeometry>
        </mxCell>
        <mxCell id="QTTLoTGfmT-ES7QoQZG1-135" value="EM_Doors" style="swimlane;fontStyle=1;align=center;verticalAlign=top;childLayout=stackLayout;horizontal=1;startSize=26;horizontalStack=0;resizeParent=1;resizeParentMax=0;resizeLast=0;collapsible=1;marginBottom=0;whiteSpace=wrap;html=1;" parent="1" vertex="1">
          <mxGeometry x="1440" y="840" width="160" height="242" as="geometry">
            <mxRectangle x="360" y="520" width="90" height="30" as="alternateBounds" />
          </mxGeometry>
        </mxCell>
        <mxCell id="QTTLoTGfmT-ES7QoQZG1-136" value="+ m_Main(): BOOL" style="text;strokeColor=none;fillColor=none;align=left;verticalAlign=top;spacingLeft=4;spacingRight=4;overflow=hidden;rotatable=0;points=[[0,0.5],[1,0.5]];portConstraint=eastwest;whiteSpace=wrap;html=1;" parent="QTTLoTGfmT-ES7QoQZG1-135" vertex="1">
          <mxGeometry y="26" width="160" height="26" as="geometry" />
        </mxCell>
        <mxCell id="QTTLoTGfmT-ES7QoQZG1-137" value="" style="line;strokeWidth=1;fillColor=none;align=left;verticalAlign=middle;spacingTop=-1;spacingLeft=3;spacingRight=3;rotatable=0;labelPosition=right;points=[];portConstraint=eastwest;strokeColor=inherit;" parent="QTTLoTGfmT-ES7QoQZG1-135" vertex="1">
          <mxGeometry y="52" width="160" height="8" as="geometry" />
        </mxCell>
        <mxCell id="QTTLoTGfmT-ES7QoQZG1-138" value="# _m_Init(): BOOL" style="text;strokeColor=none;fillColor=none;align=left;verticalAlign=top;spacingLeft=4;spacingRight=4;overflow=hidden;rotatable=0;points=[[0,0.5],[1,0.5]];portConstraint=eastwest;whiteSpace=wrap;html=1;" parent="QTTLoTGfmT-ES7QoQZG1-135" vertex="1">
          <mxGeometry y="60" width="160" height="26" as="geometry" />
        </mxCell>
        <mxCell id="QTTLoTGfmT-ES7QoQZG1-139" value="# _m_Inputs: BOOL" style="text;strokeColor=none;fillColor=none;align=left;verticalAlign=top;spacingLeft=4;spacingRight=4;overflow=hidden;rotatable=0;points=[[0,0.5],[1,0.5]];portConstraint=eastwest;whiteSpace=wrap;html=1;" parent="QTTLoTGfmT-ES7QoQZG1-135" vertex="1">
          <mxGeometry y="86" width="160" height="26" as="geometry" />
        </mxCell>
        <mxCell id="QTTLoTGfmT-ES7QoQZG1-140" value="# _m_Params: BOOL" style="text;strokeColor=none;fillColor=none;align=left;verticalAlign=top;spacingLeft=4;spacingRight=4;overflow=hidden;rotatable=0;points=[[0,0.5],[1,0.5]];portConstraint=eastwest;whiteSpace=wrap;html=1;" parent="QTTLoTGfmT-ES7QoQZG1-135" vertex="1">
          <mxGeometry y="112" width="160" height="26" as="geometry" />
        </mxCell>
        <mxCell id="QTTLoTGfmT-ES7QoQZG1-141" value="# _m_Hmi(): BOOL" style="text;strokeColor=none;fillColor=none;align=left;verticalAlign=top;spacingLeft=4;spacingRight=4;overflow=hidden;rotatable=0;points=[[0,0.5],[1,0.5]];portConstraint=eastwest;whiteSpace=wrap;html=1;" parent="QTTLoTGfmT-ES7QoQZG1-135" vertex="1">
          <mxGeometry y="138" width="160" height="26" as="geometry" />
        </mxCell>
        <mxCell id="QTTLoTGfmT-ES7QoQZG1-142" value="# _m_Devices(): BOOL" style="text;strokeColor=none;fillColor=none;align=left;verticalAlign=top;spacingLeft=4;spacingRight=4;overflow=hidden;rotatable=0;points=[[0,0.5],[1,0.5]];portConstraint=eastwest;whiteSpace=wrap;html=1;" parent="QTTLoTGfmT-ES7QoQZG1-135" vertex="1">
          <mxGeometry y="164" width="160" height="26" as="geometry" />
        </mxCell>
        <mxCell id="QTTLoTGfmT-ES7QoQZG1-143" value="# _m_Alarms(): BOOL" style="text;strokeColor=none;fillColor=none;align=left;verticalAlign=top;spacingLeft=4;spacingRight=4;overflow=hidden;rotatable=0;points=[[0,0.5],[1,0.5]];portConstraint=eastwest;whiteSpace=wrap;html=1;" parent="QTTLoTGfmT-ES7QoQZG1-135" vertex="1">
          <mxGeometry y="190" width="160" height="26" as="geometry" />
        </mxCell>
        <mxCell id="QTTLoTGfmT-ES7QoQZG1-144" value="# _m_Outputs: BOOL" style="text;strokeColor=none;fillColor=none;align=left;verticalAlign=top;spacingLeft=4;spacingRight=4;overflow=hidden;rotatable=0;points=[[0,0.5],[1,0.5]];portConstraint=eastwest;whiteSpace=wrap;html=1;" parent="QTTLoTGfmT-ES7QoQZG1-135" vertex="1">
          <mxGeometry y="216" width="160" height="26" as="geometry" />
        </mxCell>
        <mxCell id="QTTLoTGfmT-ES7QoQZG1-145" value="Extends" style="endArrow=block;endSize=16;endFill=0;html=1;rounded=0;edgeStyle=orthogonalEdgeStyle;" parent="1" source="QTTLoTGfmT-ES7QoQZG1-135" target="QTTLoTGfmT-ES7QoQZG1-109" edge="1">
          <mxGeometry x="-0.4872" width="160" relative="1" as="geometry">
            <mxPoint x="1310" y="802" as="sourcePoint" />
            <mxPoint x="830" y="730" as="targetPoint" />
            <Array as="points">
              <mxPoint x="1520" y="780" />
              <mxPoint x="1520" y="780" />
            </Array>
            <mxPoint as="offset" />
          </mxGeometry>
        </mxCell>
        <mxCell id="QTTLoTGfmT-ES7QoQZG1-153" value="&lt;div&gt;&lt;span style=&quot;background-color: initial;&quot;&gt;doLedLockState&lt;/span&gt;&lt;span style=&quot;background-color: initial;&quot;&gt;&amp;nbsp;:&lt;/span&gt;&lt;br&gt;&lt;/div&gt;&lt;div&gt;FB_DigOutput&lt;br&gt;&lt;/div&gt;" style="rounded=1;whiteSpace=wrap;html=1;fillColor=#d5e8d4;strokeColor=#82b366;" parent="1" vertex="1">
          <mxGeometry x="-80" y="380" width="120" height="60" as="geometry" />
        </mxCell>
        <mxCell id="QTTLoTGfmT-ES7QoQZG1-154" value="" style="endArrow=none;html=1;rounded=0;fontColor=#000000;strokeColor=#ff0000;" parent="1" edge="1">
          <mxGeometry width="50" height="50" relative="1" as="geometry">
            <mxPoint x="-40" y="2200" as="sourcePoint" />
            <mxPoint x="600" y="1480" as="targetPoint" />
          </mxGeometry>
        </mxCell>
        <mxCell id="QTTLoTGfmT-ES7QoQZG1-155" value="" style="endArrow=none;html=1;rounded=0;fontColor=#000000;strokeColor=#ff0000;" parent="1" edge="1">
          <mxGeometry width="50" height="50" relative="1" as="geometry">
            <mxPoint x="-40" y="1480" as="sourcePoint" />
            <mxPoint x="600" y="2200" as="targetPoint" />
          </mxGeometry>
        </mxCell>
        <mxCell id="QTTLoTGfmT-ES7QoQZG1-156" value="&lt;div&gt;&lt;span style=&quot;background-color: initial;&quot;&gt;diBtnToggleDocking&lt;/span&gt;&lt;span style=&quot;background-color: initial;&quot;&gt;&amp;nbsp;:&lt;/span&gt;&lt;br&gt;&lt;/div&gt;&lt;div&gt;FB_DigInput&lt;br&gt;&lt;/div&gt;" style="rounded=1;whiteSpace=wrap;html=1;fillColor=#d5e8d4;strokeColor=#82b366;sketch=1;curveFitting=1;jiggle=2;" parent="1" vertex="1">
          <mxGeometry x="-440" y="380" width="120" height="60" as="geometry" />
        </mxCell>
        <mxCell id="QTTLoTGfmT-ES7QoQZG1-157" value="&lt;div&gt;&lt;span style=&quot;background-color: initial;&quot;&gt;doLedDockingState&lt;/span&gt;&lt;span style=&quot;background-color: initial;&quot;&gt;&amp;nbsp;:&lt;/span&gt;&lt;br&gt;&lt;/div&gt;&lt;div&gt;FB_DigOutput&lt;br&gt;&lt;/div&gt;" style="rounded=1;whiteSpace=wrap;html=1;fillColor=#d5e8d4;strokeColor=#82b366;sketch=1;curveFitting=1;jiggle=2;" parent="1" vertex="1">
          <mxGeometry x="-320" y="380" width="120" height="60" as="geometry" />
        </mxCell>
        <mxCell id="QTTLoTGfmT-ES7QoQZG1-158" value="ColorLed showing air state?" style="rounded=1;whiteSpace=wrap;html=1;fillColor=#d5e8d4;strokeColor=#82b366;sketch=1;curveFitting=1;jiggle=2;" parent="1" vertex="1">
          <mxGeometry x="1240" y="380" width="120" height="60" as="geometry" />
        </mxCell>
        <mxCell id="WajbnLyQUwINCbo2Qmng-1" value="Sensor box on position?" style="rounded=1;whiteSpace=wrap;html=1;fillColor=#d5e8d4;strokeColor=#82b366;sketch=1;curveFitting=1;jiggle=2;" parent="1" vertex="1">
          <mxGeometry x="800" y="380" width="120" height="60" as="geometry" />
        </mxCell>
        <mxCell id="sJ3fyfCY0IB26J6BL8Vh-1" value="&lt;div&gt;cmValveDocking&lt;/div&gt;&lt;div&gt;ClampsUpper :&lt;/div&gt;&lt;div&gt;CM_ValveWith&lt;/div&gt;&lt;div&gt;DoubleFB&lt;br&gt;&lt;/div&gt;" style="rounded=1;whiteSpace=wrap;html=1;fillColor=#d5e8d4;strokeColor=#82b366;" vertex="1" parent="1">
          <mxGeometry x="300" y="560" width="120" height="60" as="geometry" />
        </mxCell>
        <mxCell id="sJ3fyfCY0IB26J6BL8Vh-2" value="&lt;div&gt;cmValveDocking&lt;/div&gt;&lt;div&gt;ClampsLower :&lt;/div&gt;&lt;div&gt;&lt;div&gt;CM_ValveWith&lt;/div&gt;&lt;div&gt;DoubleFB&lt;/div&gt;&lt;/div&gt;" style="rounded=1;whiteSpace=wrap;html=1;fillColor=#d5e8d4;strokeColor=#82b366;" vertex="1" parent="1">
          <mxGeometry x="420" y="560" width="120" height="60" as="geometry" />
        </mxCell>
        <mxCell id="sJ3fyfCY0IB26J6BL8Vh-3" value="&lt;div&gt;cmValveUnlocking&lt;/div&gt;&lt;div&gt;&lt;span style=&quot;background-color: initial;&quot;&gt;PinsUpper :&lt;/span&gt;&lt;/div&gt;&lt;div&gt;&lt;div&gt;CM_ValveWith&lt;span style=&quot;background-color: initial;&quot;&gt;FB&lt;/span&gt;&lt;/div&gt;&lt;/div&gt;" style="rounded=1;whiteSpace=wrap;html=1;fillColor=#d5e8d4;strokeColor=#82b366;" vertex="1" parent="1">
          <mxGeometry x="580" y="560" width="120" height="60" as="geometry" />
        </mxCell>
        <mxCell id="sJ3fyfCY0IB26J6BL8Vh-4" value="&lt;div&gt;cmValveUnlocking&lt;/div&gt;&lt;div&gt;&lt;span style=&quot;background-color: initial;&quot;&gt;PinsLower :&lt;/span&gt;&lt;/div&gt;&lt;div&gt;&lt;div&gt;CM_ValveWith&lt;span style=&quot;background-color: initial;&quot;&gt;FB&lt;/span&gt;&lt;/div&gt;&lt;/div&gt;" style="rounded=1;whiteSpace=wrap;html=1;fillColor=#d5e8d4;strokeColor=#82b366;" vertex="1" parent="1">
          <mxGeometry x="700" y="560" width="120" height="60" as="geometry" />
        </mxCell>
        <mxCell id="sJ3fyfCY0IB26J6BL8Vh-5" value="&lt;div&gt;cmDocking&lt;span style=&quot;background-color: initial;&quot;&gt;Clamps :&lt;/span&gt;&lt;/div&gt;&lt;div&gt;CM_&lt;span style=&quot;background-color: initial;&quot;&gt;Docking&lt;/span&gt;&lt;span style=&quot;background-color: initial;&quot;&gt;Clamps&lt;/span&gt;&lt;/div&gt;" style="rounded=1;whiteSpace=wrap;html=1;fillColor=#d5e8d4;strokeColor=#82b366;" vertex="1" parent="1">
          <mxGeometry x="300" y="500" width="240" height="60" as="geometry" />
        </mxCell>
        <mxCell id="sJ3fyfCY0IB26J6BL8Vh-6" value="&lt;div&gt;cmUnlocking&lt;span style=&quot;background-color: initial;&quot;&gt;Pins :&lt;/span&gt;&lt;/div&gt;&lt;div&gt;&lt;span style=&quot;background-color: initial;&quot;&gt;CM_&lt;/span&gt;&lt;span style=&quot;background-color: initial;&quot;&gt;Unlocking&lt;/span&gt;&lt;span style=&quot;background-color: initial;&quot;&gt;Pins&lt;/span&gt;&lt;/div&gt;" style="rounded=1;whiteSpace=wrap;html=1;fillColor=#d5e8d4;strokeColor=#82b366;" vertex="1" parent="1">
          <mxGeometry x="580" y="500" width="240" height="60" as="geometry" />
        </mxCell>
        <mxCell id="wkJuCMWHBZESPPHSqBOW-2" value="" style="rounded=0;whiteSpace=wrap;html=1;fillColor=none;strokeColor=#ff0000;dashed=1;" vertex="1" parent="1">
          <mxGeometry x="290" y="490" width="260" height="140" as="geometry" />
        </mxCell>
        <mxCell id="wkJuCMWHBZESPPHSqBOW-4" value="" style="rounded=0;whiteSpace=wrap;html=1;fillColor=none;strokeColor=#ff0000;dashed=1;" vertex="1" parent="1">
          <mxGeometry x="570" y="490" width="260" height="140" as="geometry" />
        </mxCell>
        <mxCell id="wkJuCMWHBZESPPHSqBOW-5" value="" style="rounded=0;whiteSpace=wrap;html=1;fillColor=none;strokeColor=#ff0000;dashed=1;" vertex="1" parent="1">
          <mxGeometry x="310" y="370" width="250" height="80" as="geometry" />
        </mxCell>
        <mxCell id="wkJuCMWHBZESPPHSqBOW-7" value="" style="rounded=0;whiteSpace=wrap;html=1;fillColor=none;strokeColor=#ff0000;dashed=1;" vertex="1" parent="1">
          <mxGeometry x="560" y="370" width="250" height="80" as="geometry" />
        </mxCell>
        <mxCell id="wkJuCMWHBZESPPHSqBOW-8" value="" style="endArrow=classic;html=1;rounded=0;entryX=0.5;entryY=0;entryDx=0;entryDy=0;exitX=0.5;exitY=1;exitDx=0;exitDy=0;strokeColor=#ff0000;" edge="1" parent="1" source="wkJuCMWHBZESPPHSqBOW-5" target="wkJuCMWHBZESPPHSqBOW-2">
          <mxGeometry width="50" height="50" relative="1" as="geometry">
            <mxPoint x="440" y="460" as="sourcePoint" />
            <mxPoint x="300" y="610" as="targetPoint" />
          </mxGeometry>
        </mxCell>
        <mxCell id="wkJuCMWHBZESPPHSqBOW-9" value="" style="endArrow=classic;html=1;rounded=0;entryX=0.5;entryY=0;entryDx=0;entryDy=0;exitX=0.5;exitY=1;exitDx=0;exitDy=0;strokeColor=#ff0000;" edge="1" parent="1" source="wkJuCMWHBZESPPHSqBOW-7" target="wkJuCMWHBZESPPHSqBOW-4">
          <mxGeometry width="50" height="50" relative="1" as="geometry">
            <mxPoint x="920" y="670" as="sourcePoint" />
            <mxPoint x="665" y="720" as="targetPoint" />
          </mxGeometry>
        </mxCell>
      </root>
    </mxGraphModel>
  </diagram>
  <diagram id="ZXdTu7Q9bdz96NMp7-Rw" name="CM&#39;s">
    <mxGraphModel dx="1687" dy="993" grid="1" gridSize="10" guides="1" tooltips="1" connect="1" arrows="1" fold="1" page="1" pageScale="1" pageWidth="850" pageHeight="1100" math="0" shadow="0">
      <root>
        <mxCell id="0" />
        <mxCell id="1" parent="0" />
        <mxCell id="yhKsh583Elh3zXDPcWRW-1" value="CM_SpeedDoor" style="swimlane;fontStyle=1;align=center;verticalAlign=top;childLayout=stackLayout;horizontal=1;startSize=26;horizontalStack=0;resizeParent=1;resizeParentMax=0;resizeLast=0;collapsible=1;marginBottom=0;whiteSpace=wrap;html=1;" parent="1" vertex="1">
          <mxGeometry x="355" y="480" width="160" height="182" as="geometry">
            <mxRectangle x="360" y="920" width="130" height="30" as="alternateBounds" />
          </mxGeometry>
        </mxCell>
        <mxCell id="yhKsh583Elh3zXDPcWRW-2" value="# _m_Init(): BOOL" style="text;strokeColor=none;fillColor=none;align=left;verticalAlign=top;spacingLeft=4;spacingRight=4;overflow=hidden;rotatable=0;points=[[0,0.5],[1,0.5]];portConstraint=eastwest;whiteSpace=wrap;html=1;" parent="yhKsh583Elh3zXDPcWRW-1" vertex="1">
          <mxGeometry y="26" width="160" height="26" as="geometry" />
        </mxCell>
        <mxCell id="yhKsh583Elh3zXDPcWRW-3" value="# _m_Inputs(): BOOL" style="text;strokeColor=none;fillColor=none;align=left;verticalAlign=top;spacingLeft=4;spacingRight=4;overflow=hidden;rotatable=0;points=[[0,0.5],[1,0.5]];portConstraint=eastwest;whiteSpace=wrap;html=1;" parent="yhKsh583Elh3zXDPcWRW-1" vertex="1">
          <mxGeometry y="52" width="160" height="26" as="geometry" />
        </mxCell>
        <mxCell id="yhKsh583Elh3zXDPcWRW-4" value="# _m_Hmi(): BOOL" style="text;strokeColor=none;fillColor=none;align=left;verticalAlign=top;spacingLeft=4;spacingRight=4;overflow=hidden;rotatable=0;points=[[0,0.5],[1,0.5]];portConstraint=eastwest;whiteSpace=wrap;html=1;" parent="yhKsh583Elh3zXDPcWRW-1" vertex="1">
          <mxGeometry y="78" width="160" height="26" as="geometry" />
        </mxCell>
        <mxCell id="yhKsh583Elh3zXDPcWRW-5" value="# _m_Devices(): BOOL" style="text;strokeColor=none;fillColor=none;align=left;verticalAlign=top;spacingLeft=4;spacingRight=4;overflow=hidden;rotatable=0;points=[[0,0.5],[1,0.5]];portConstraint=eastwest;whiteSpace=wrap;html=1;" parent="yhKsh583Elh3zXDPcWRW-1" vertex="1">
          <mxGeometry y="104" width="160" height="26" as="geometry" />
        </mxCell>
        <mxCell id="yhKsh583Elh3zXDPcWRW-6" value="# _m_Alarms(): BOOL" style="text;strokeColor=none;fillColor=none;align=left;verticalAlign=top;spacingLeft=4;spacingRight=4;overflow=hidden;rotatable=0;points=[[0,0.5],[1,0.5]];portConstraint=eastwest;whiteSpace=wrap;html=1;" parent="yhKsh583Elh3zXDPcWRW-1" vertex="1">
          <mxGeometry y="130" width="160" height="26" as="geometry" />
        </mxCell>
        <mxCell id="yhKsh583Elh3zXDPcWRW-7" value="# _m_Outputs(): BOOL" style="text;strokeColor=none;fillColor=none;align=left;verticalAlign=top;spacingLeft=4;spacingRight=4;overflow=hidden;rotatable=0;points=[[0,0.5],[1,0.5]];portConstraint=eastwest;whiteSpace=wrap;html=1;" parent="yhKsh583Elh3zXDPcWRW-1" vertex="1">
          <mxGeometry y="156" width="160" height="26" as="geometry" />
        </mxCell>
        <mxCell id="yhKsh583Elh3zXDPcWRW-8" value="CM_Base" style="swimlane;fontStyle=1;align=center;verticalAlign=top;childLayout=stackLayout;horizontal=1;startSize=26;horizontalStack=0;resizeParent=1;resizeParentMax=0;resizeLast=0;collapsible=1;marginBottom=0;whiteSpace=wrap;html=1;" parent="1" vertex="1">
          <mxGeometry x="355" y="80" width="160" height="328" as="geometry">
            <mxRectangle x="360" y="520" width="90" height="30" as="alternateBounds" />
          </mxGeometry>
        </mxCell>
        <mxCell id="yhKsh583Elh3zXDPcWRW-9" value="+ p_bStaEnabled: BOOL" style="text;strokeColor=none;fillColor=none;align=left;verticalAlign=top;spacingLeft=4;spacingRight=4;overflow=hidden;rotatable=0;points=[[0,0.5],[1,0.5]];portConstraint=eastwest;whiteSpace=wrap;html=1;" parent="yhKsh583Elh3zXDPcWRW-8" vertex="1">
          <mxGeometry y="26" width="160" height="26" as="geometry" />
        </mxCell>
        <mxCell id="yhKsh583Elh3zXDPcWRW-10" value="+ p_bStaError: BOOL" style="text;strokeColor=none;fillColor=none;align=left;verticalAlign=top;spacingLeft=4;spacingRight=4;overflow=hidden;rotatable=0;points=[[0,0.5],[1,0.5]];portConstraint=eastwest;whiteSpace=wrap;html=1;" parent="yhKsh583Elh3zXDPcWRW-8" vertex="1">
          <mxGeometry y="52" width="160" height="26" as="geometry" />
        </mxCell>
        <mxCell id="yhKsh583Elh3zXDPcWRW-11" value="+ p_eCtrlMode: E_CtrlMode" style="text;strokeColor=none;fillColor=none;align=left;verticalAlign=top;spacingLeft=4;spacingRight=4;overflow=hidden;rotatable=0;points=[[0,0.5],[1,0.5]];portConstraint=eastwest;whiteSpace=wrap;html=1;" parent="yhKsh583Elh3zXDPcWRW-8" vertex="1">
          <mxGeometry y="78" width="160" height="26" as="geometry" />
        </mxCell>
        <mxCell id="yhKsh583Elh3zXDPcWRW-12" value="+ p_sCmName: STRING" style="text;strokeColor=none;fillColor=none;align=left;verticalAlign=top;spacingLeft=4;spacingRight=4;overflow=hidden;rotatable=0;points=[[0,0.5],[1,0.5]];portConstraint=eastwest;whiteSpace=wrap;html=1;" parent="yhKsh583Elh3zXDPcWRW-8" vertex="1">
          <mxGeometry y="104" width="160" height="26" as="geometry" />
        </mxCell>
        <mxCell id="yhKsh583Elh3zXDPcWRW-13" value="" style="line;strokeWidth=1;fillColor=none;align=left;verticalAlign=middle;spacingTop=-1;spacingLeft=3;spacingRight=3;rotatable=0;labelPosition=right;points=[];portConstraint=eastwest;strokeColor=inherit;" parent="yhKsh583Elh3zXDPcWRW-8" vertex="1">
          <mxGeometry y="130" width="160" height="8" as="geometry" />
        </mxCell>
        <mxCell id="yhKsh583Elh3zXDPcWRW-14" value="+ m_Main(): BOOL" style="text;strokeColor=none;fillColor=none;align=left;verticalAlign=top;spacingLeft=4;spacingRight=4;overflow=hidden;rotatable=0;points=[[0,0.5],[1,0.5]];portConstraint=eastwest;whiteSpace=wrap;html=1;" parent="yhKsh583Elh3zXDPcWRW-8" vertex="1">
          <mxGeometry y="138" width="160" height="26" as="geometry" />
        </mxCell>
        <mxCell id="yhKsh583Elh3zXDPcWRW-15" value="" style="line;strokeWidth=1;fillColor=none;align=left;verticalAlign=middle;spacingTop=-1;spacingLeft=3;spacingRight=3;rotatable=0;labelPosition=right;points=[];portConstraint=eastwest;strokeColor=inherit;" parent="yhKsh583Elh3zXDPcWRW-8" vertex="1">
          <mxGeometry y="164" width="160" height="8" as="geometry" />
        </mxCell>
        <mxCell id="yhKsh583Elh3zXDPcWRW-16" value="# _m_Init(): BOOL" style="text;strokeColor=none;fillColor=none;align=left;verticalAlign=top;spacingLeft=4;spacingRight=4;overflow=hidden;rotatable=0;points=[[0,0.5],[1,0.5]];portConstraint=eastwest;whiteSpace=wrap;html=1;" parent="yhKsh583Elh3zXDPcWRW-8" vertex="1">
          <mxGeometry y="172" width="160" height="26" as="geometry" />
        </mxCell>
        <mxCell id="yhKsh583Elh3zXDPcWRW-17" value="# _m_Inputs: BOOL" style="text;strokeColor=none;fillColor=none;align=left;verticalAlign=top;spacingLeft=4;spacingRight=4;overflow=hidden;rotatable=0;points=[[0,0.5],[1,0.5]];portConstraint=eastwest;whiteSpace=wrap;html=1;" parent="yhKsh583Elh3zXDPcWRW-8" vertex="1">
          <mxGeometry y="198" width="160" height="26" as="geometry" />
        </mxCell>
        <mxCell id="yhKsh583Elh3zXDPcWRW-18" value="# _m_Hmi(): BOOL" style="text;strokeColor=none;fillColor=none;align=left;verticalAlign=top;spacingLeft=4;spacingRight=4;overflow=hidden;rotatable=0;points=[[0,0.5],[1,0.5]];portConstraint=eastwest;whiteSpace=wrap;html=1;" parent="yhKsh583Elh3zXDPcWRW-8" vertex="1">
          <mxGeometry y="224" width="160" height="26" as="geometry" />
        </mxCell>
        <mxCell id="yhKsh583Elh3zXDPcWRW-19" value="# _m_Devices(): BOOL" style="text;strokeColor=none;fillColor=none;align=left;verticalAlign=top;spacingLeft=4;spacingRight=4;overflow=hidden;rotatable=0;points=[[0,0.5],[1,0.5]];portConstraint=eastwest;whiteSpace=wrap;html=1;" parent="yhKsh583Elh3zXDPcWRW-8" vertex="1">
          <mxGeometry y="250" width="160" height="26" as="geometry" />
        </mxCell>
        <mxCell id="yhKsh583Elh3zXDPcWRW-20" value="# _m_Alarms(): BOOL" style="text;strokeColor=none;fillColor=none;align=left;verticalAlign=top;spacingLeft=4;spacingRight=4;overflow=hidden;rotatable=0;points=[[0,0.5],[1,0.5]];portConstraint=eastwest;whiteSpace=wrap;html=1;" parent="yhKsh583Elh3zXDPcWRW-8" vertex="1">
          <mxGeometry y="276" width="160" height="26" as="geometry" />
        </mxCell>
        <mxCell id="yhKsh583Elh3zXDPcWRW-21" value="# _m_Outputs: BOOL" style="text;strokeColor=none;fillColor=none;align=left;verticalAlign=top;spacingLeft=4;spacingRight=4;overflow=hidden;rotatable=0;points=[[0,0.5],[1,0.5]];portConstraint=eastwest;whiteSpace=wrap;html=1;" parent="yhKsh583Elh3zXDPcWRW-8" vertex="1">
          <mxGeometry y="302" width="160" height="26" as="geometry" />
        </mxCell>
        <mxCell id="yhKsh583Elh3zXDPcWRW-22" value="Extends" style="endArrow=block;endSize=16;endFill=0;html=1;rounded=0;edgeStyle=orthogonalEdgeStyle;" parent="1" source="yhKsh583Elh3zXDPcWRW-1" target="yhKsh583Elh3zXDPcWRW-8" edge="1">
          <mxGeometry x="-0.4444" width="160" relative="1" as="geometry">
            <mxPoint x="385" y="470" as="sourcePoint" />
            <mxPoint x="545" y="470" as="targetPoint" />
            <mxPoint as="offset" />
          </mxGeometry>
        </mxCell>
        <mxCell id="yhKsh583Elh3zXDPcWRW-23" value="I_Door" style="swimlane;fontStyle=1;align=center;verticalAlign=top;childLayout=stackLayout;horizontal=1;startSize=26;horizontalStack=0;resizeParent=1;resizeParentMax=0;resizeLast=0;collapsible=1;marginBottom=0;whiteSpace=wrap;html=1;" parent="1" vertex="1">
          <mxGeometry x="595" y="520" width="160" height="242" as="geometry">
            <mxRectangle x="600" y="920" width="80" height="30" as="alternateBounds" />
          </mxGeometry>
        </mxCell>
        <mxCell id="yhKsh583Elh3zXDPcWRW-24" value="+ p_bStaIsOpening: BOOL" style="text;strokeColor=none;fillColor=none;align=left;verticalAlign=top;spacingLeft=4;spacingRight=4;overflow=hidden;rotatable=0;points=[[0,0.5],[1,0.5]];portConstraint=eastwest;whiteSpace=wrap;html=1;" parent="yhKsh583Elh3zXDPcWRW-23" vertex="1">
          <mxGeometry y="26" width="160" height="26" as="geometry" />
        </mxCell>
        <mxCell id="yhKsh583Elh3zXDPcWRW-25" value="+ p_bStaIsOpened: BOOL" style="text;strokeColor=none;fillColor=none;align=left;verticalAlign=top;spacingLeft=4;spacingRight=4;overflow=hidden;rotatable=0;points=[[0,0.5],[1,0.5]];portConstraint=eastwest;whiteSpace=wrap;html=1;" parent="yhKsh583Elh3zXDPcWRW-23" vertex="1">
          <mxGeometry y="52" width="160" height="26" as="geometry" />
        </mxCell>
        <mxCell id="yhKsh583Elh3zXDPcWRW-26" value="+ p_bStaIsClosing: BOOL" style="text;strokeColor=none;fillColor=none;align=left;verticalAlign=top;spacingLeft=4;spacingRight=4;overflow=hidden;rotatable=0;points=[[0,0.5],[1,0.5]];portConstraint=eastwest;whiteSpace=wrap;html=1;" parent="yhKsh583Elh3zXDPcWRW-23" vertex="1">
          <mxGeometry y="78" width="160" height="26" as="geometry" />
        </mxCell>
        <mxCell id="yhKsh583Elh3zXDPcWRW-27" value="+ p_bStaIsClosed: BOOL" style="text;strokeColor=none;fillColor=none;align=left;verticalAlign=top;spacingLeft=4;spacingRight=4;overflow=hidden;rotatable=0;points=[[0,0.5],[1,0.5]];portConstraint=eastwest;whiteSpace=wrap;html=1;" parent="yhKsh583Elh3zXDPcWRW-23" vertex="1">
          <mxGeometry y="104" width="160" height="26" as="geometry" />
        </mxCell>
        <mxCell id="yhKsh583Elh3zXDPcWRW-28" value="" style="line;strokeWidth=1;fillColor=none;align=left;verticalAlign=middle;spacingTop=-1;spacingLeft=3;spacingRight=3;rotatable=0;labelPosition=right;points=[];portConstraint=eastwest;strokeColor=inherit;" parent="yhKsh583Elh3zXDPcWRW-23" vertex="1">
          <mxGeometry y="130" width="160" height="8" as="geometry" />
        </mxCell>
        <mxCell id="yhKsh583Elh3zXDPcWRW-29" value="+ m_Open(): BOOL" style="text;strokeColor=none;fillColor=none;align=left;verticalAlign=top;spacingLeft=4;spacingRight=4;overflow=hidden;rotatable=0;points=[[0,0.5],[1,0.5]];portConstraint=eastwest;whiteSpace=wrap;html=1;" parent="yhKsh583Elh3zXDPcWRW-23" vertex="1">
          <mxGeometry y="138" width="160" height="26" as="geometry" />
        </mxCell>
        <mxCell id="yhKsh583Elh3zXDPcWRW-30" value="+ m_Close(): BOOL" style="text;strokeColor=none;fillColor=none;align=left;verticalAlign=top;spacingLeft=4;spacingRight=4;overflow=hidden;rotatable=0;points=[[0,0.5],[1,0.5]];portConstraint=eastwest;whiteSpace=wrap;html=1;" parent="yhKsh583Elh3zXDPcWRW-23" vertex="1">
          <mxGeometry y="164" width="160" height="26" as="geometry" />
        </mxCell>
        <mxCell id="yhKsh583Elh3zXDPcWRW-31" value="+ m_Stop(): BOOL" style="text;strokeColor=none;fillColor=none;align=left;verticalAlign=top;spacingLeft=4;spacingRight=4;overflow=hidden;rotatable=0;points=[[0,0.5],[1,0.5]];portConstraint=eastwest;whiteSpace=wrap;html=1;" parent="yhKsh583Elh3zXDPcWRW-23" vertex="1">
          <mxGeometry y="190" width="160" height="26" as="geometry" />
        </mxCell>
        <mxCell id="yhKsh583Elh3zXDPcWRW-32" value="+ m_Reset(): BOOL" style="text;strokeColor=none;fillColor=none;align=left;verticalAlign=top;spacingLeft=4;spacingRight=4;overflow=hidden;rotatable=0;points=[[0,0.5],[1,0.5]];portConstraint=eastwest;whiteSpace=wrap;html=1;" parent="yhKsh583Elh3zXDPcWRW-23" vertex="1">
          <mxGeometry y="216" width="160" height="26" as="geometry" />
        </mxCell>
        <mxCell id="yhKsh583Elh3zXDPcWRW-33" value="CM_DoorLock" style="swimlane;fontStyle=1;align=center;verticalAlign=top;childLayout=stackLayout;horizontal=1;startSize=26;horizontalStack=0;resizeParent=1;resizeParentMax=0;resizeLast=0;collapsible=1;marginBottom=0;whiteSpace=wrap;html=1;" parent="1" vertex="1">
          <mxGeometry x="75" y="480" width="200" height="328" as="geometry">
            <mxRectangle x="360" y="920" width="130" height="30" as="alternateBounds" />
          </mxGeometry>
        </mxCell>
        <mxCell id="yhKsh583Elh3zXDPcWRW-34" value="+ p_bStaLockIsReleased: BOOL" style="text;strokeColor=none;fillColor=none;align=left;verticalAlign=top;spacingLeft=4;spacingRight=4;overflow=hidden;rotatable=0;points=[[0,0.5],[1,0.5]];portConstraint=eastwest;whiteSpace=wrap;html=1;" parent="yhKsh583Elh3zXDPcWRW-33" vertex="1">
          <mxGeometry y="26" width="200" height="26" as="geometry" />
        </mxCell>
        <mxCell id="yhKsh583Elh3zXDPcWRW-35" value="+ p_bStaLockIsApplied: BOOL" style="text;strokeColor=none;fillColor=none;align=left;verticalAlign=top;spacingLeft=4;spacingRight=4;overflow=hidden;rotatable=0;points=[[0,0.5],[1,0.5]];portConstraint=eastwest;whiteSpace=wrap;html=1;" parent="yhKsh583Elh3zXDPcWRW-33" vertex="1">
          <mxGeometry y="52" width="200" height="26" as="geometry" />
        </mxCell>
        <mxCell id="yhKsh583Elh3zXDPcWRW-36" value="+ p_bStaDoorIsClosed: BOOL" style="text;strokeColor=none;fillColor=none;align=left;verticalAlign=top;spacingLeft=4;spacingRight=4;overflow=hidden;rotatable=0;points=[[0,0.5],[1,0.5]];portConstraint=eastwest;whiteSpace=wrap;html=1;" parent="yhKsh583Elh3zXDPcWRW-33" vertex="1">
          <mxGeometry y="78" width="200" height="26" as="geometry" />
        </mxCell>
        <mxCell id="yhKsh583Elh3zXDPcWRW-37" value="" style="line;strokeWidth=1;fillColor=none;align=left;verticalAlign=middle;spacingTop=-1;spacingLeft=3;spacingRight=3;rotatable=0;labelPosition=right;points=[];portConstraint=eastwest;strokeColor=inherit;" parent="yhKsh583Elh3zXDPcWRW-33" vertex="1">
          <mxGeometry y="104" width="200" height="8" as="geometry" />
        </mxCell>
        <mxCell id="yhKsh583Elh3zXDPcWRW-38" value="+ m_Release(): BOOL" style="text;strokeColor=none;fillColor=none;align=left;verticalAlign=top;spacingLeft=4;spacingRight=4;overflow=hidden;rotatable=0;points=[[0,0.5],[1,0.5]];portConstraint=eastwest;whiteSpace=wrap;html=1;" parent="yhKsh583Elh3zXDPcWRW-33" vertex="1">
          <mxGeometry y="112" width="200" height="26" as="geometry" />
        </mxCell>
        <mxCell id="yhKsh583Elh3zXDPcWRW-39" value="+ m_Apply(): BOOL" style="text;strokeColor=none;fillColor=none;align=left;verticalAlign=top;spacingLeft=4;spacingRight=4;overflow=hidden;rotatable=0;points=[[0,0.5],[1,0.5]];portConstraint=eastwest;whiteSpace=wrap;html=1;" parent="yhKsh583Elh3zXDPcWRW-33" vertex="1">
          <mxGeometry y="138" width="200" height="26" as="geometry" />
        </mxCell>
        <mxCell id="yhKsh583Elh3zXDPcWRW-40" value="" style="line;strokeWidth=1;fillColor=none;align=left;verticalAlign=middle;spacingTop=-1;spacingLeft=3;spacingRight=3;rotatable=0;labelPosition=right;points=[];portConstraint=eastwest;strokeColor=inherit;" parent="yhKsh583Elh3zXDPcWRW-33" vertex="1">
          <mxGeometry y="164" width="200" height="8" as="geometry" />
        </mxCell>
        <mxCell id="yhKsh583Elh3zXDPcWRW-41" value="- _m_Init(): BOOL" style="text;strokeColor=none;fillColor=none;align=left;verticalAlign=top;spacingLeft=4;spacingRight=4;overflow=hidden;rotatable=0;points=[[0,0.5],[1,0.5]];portConstraint=eastwest;whiteSpace=wrap;html=1;" parent="yhKsh583Elh3zXDPcWRW-33" vertex="1">
          <mxGeometry y="172" width="200" height="26" as="geometry" />
        </mxCell>
        <mxCell id="yhKsh583Elh3zXDPcWRW-42" value="- _m_Inputs(): BOOL" style="text;strokeColor=none;fillColor=none;align=left;verticalAlign=top;spacingLeft=4;spacingRight=4;overflow=hidden;rotatable=0;points=[[0,0.5],[1,0.5]];portConstraint=eastwest;whiteSpace=wrap;html=1;" parent="yhKsh583Elh3zXDPcWRW-33" vertex="1">
          <mxGeometry y="198" width="200" height="26" as="geometry" />
        </mxCell>
        <mxCell id="yhKsh583Elh3zXDPcWRW-43" value="- _m_Hmi(): BOOL" style="text;strokeColor=none;fillColor=none;align=left;verticalAlign=top;spacingLeft=4;spacingRight=4;overflow=hidden;rotatable=0;points=[[0,0.5],[1,0.5]];portConstraint=eastwest;whiteSpace=wrap;html=1;" parent="yhKsh583Elh3zXDPcWRW-33" vertex="1">
          <mxGeometry y="224" width="200" height="26" as="geometry" />
        </mxCell>
        <mxCell id="yhKsh583Elh3zXDPcWRW-44" value="- _m_Devices(): BOOL" style="text;strokeColor=none;fillColor=none;align=left;verticalAlign=top;spacingLeft=4;spacingRight=4;overflow=hidden;rotatable=0;points=[[0,0.5],[1,0.5]];portConstraint=eastwest;whiteSpace=wrap;html=1;" parent="yhKsh583Elh3zXDPcWRW-33" vertex="1">
          <mxGeometry y="250" width="200" height="26" as="geometry" />
        </mxCell>
        <mxCell id="yhKsh583Elh3zXDPcWRW-45" value="- _m_Alarms(): BOOL" style="text;strokeColor=none;fillColor=none;align=left;verticalAlign=top;spacingLeft=4;spacingRight=4;overflow=hidden;rotatable=0;points=[[0,0.5],[1,0.5]];portConstraint=eastwest;whiteSpace=wrap;html=1;" parent="yhKsh583Elh3zXDPcWRW-33" vertex="1">
          <mxGeometry y="276" width="200" height="26" as="geometry" />
        </mxCell>
        <mxCell id="yhKsh583Elh3zXDPcWRW-46" value="- _m_Outputs(): BOOL" style="text;strokeColor=none;fillColor=none;align=left;verticalAlign=top;spacingLeft=4;spacingRight=4;overflow=hidden;rotatable=0;points=[[0,0.5],[1,0.5]];portConstraint=eastwest;whiteSpace=wrap;html=1;" parent="yhKsh583Elh3zXDPcWRW-33" vertex="1">
          <mxGeometry y="302" width="200" height="26" as="geometry" />
        </mxCell>
        <mxCell id="yhKsh583Elh3zXDPcWRW-47" value="Extends" style="endArrow=block;endSize=16;endFill=0;html=1;rounded=0;edgeStyle=orthogonalEdgeStyle;" parent="1" source="yhKsh583Elh3zXDPcWRW-33" target="yhKsh583Elh3zXDPcWRW-8" edge="1">
          <mxGeometry x="-0.8795" width="160" relative="1" as="geometry">
            <mxPoint x="445" y="490" as="sourcePoint" />
            <mxPoint x="445" y="418" as="targetPoint" />
            <Array as="points">
              <mxPoint x="175" y="440" />
              <mxPoint x="435" y="440" />
            </Array>
            <mxPoint as="offset" />
          </mxGeometry>
        </mxCell>
        <mxCell id="yhKsh583Elh3zXDPcWRW-48" value="Not sure if using&lt;div&gt;an INTERFACE&lt;div&gt;is usefulle in this case&lt;/div&gt;&lt;/div&gt;&lt;div&gt;see CM_DoorLock&lt;/div&gt;" style="ellipse;shape=cloud;whiteSpace=wrap;html=1;" parent="1" vertex="1">
          <mxGeometry x="365" y="688" width="200" height="120" as="geometry" />
        </mxCell>
        <mxCell id="yhKsh583Elh3zXDPcWRW-49" value="" style="endArrow=diamondThin;endFill=1;endSize=24;html=1;rounded=0;edgeStyle=orthogonalEdgeStyle;" parent="1" source="yhKsh583Elh3zXDPcWRW-23" target="yhKsh583Elh3zXDPcWRW-1" edge="1">
          <mxGeometry width="160" relative="1" as="geometry">
            <mxPoint x="545" y="590" as="sourcePoint" />
            <mxPoint x="705" y="590" as="targetPoint" />
          </mxGeometry>
        </mxCell>
        <mxCell id="yhKsh583Elh3zXDPcWRW-50" value="CM_ValveWithFB" style="swimlane;fontStyle=1;align=center;verticalAlign=top;childLayout=stackLayout;horizontal=1;startSize=26;horizontalStack=0;resizeParent=1;resizeParentMax=0;resizeLast=0;collapsible=1;marginBottom=0;whiteSpace=wrap;html=1;" parent="1" vertex="1">
          <mxGeometry x="835" y="480" width="160" height="276" as="geometry">
            <mxRectangle x="360" y="920" width="130" height="30" as="alternateBounds" />
          </mxGeometry>
        </mxCell>
        <mxCell id="yhKsh583Elh3zXDPcWRW-51" value="+ p_bStaIsOff: BOOL" style="text;strokeColor=none;fillColor=none;align=left;verticalAlign=top;spacingLeft=4;spacingRight=4;overflow=hidden;rotatable=0;points=[[0,0.5],[1,0.5]];portConstraint=eastwest;whiteSpace=wrap;html=1;" parent="yhKsh583Elh3zXDPcWRW-50" vertex="1">
          <mxGeometry y="26" width="160" height="26" as="geometry" />
        </mxCell>
        <mxCell id="yhKsh583Elh3zXDPcWRW-52" value="+ p_bStaIsOn: BOOL" style="text;strokeColor=none;fillColor=none;align=left;verticalAlign=top;spacingLeft=4;spacingRight=4;overflow=hidden;rotatable=0;points=[[0,0.5],[1,0.5]];portConstraint=eastwest;whiteSpace=wrap;html=1;" parent="yhKsh583Elh3zXDPcWRW-50" vertex="1">
          <mxGeometry y="52" width="160" height="26" as="geometry" />
        </mxCell>
        <mxCell id="yhKsh583Elh3zXDPcWRW-53" value="" style="line;strokeWidth=1;fillColor=none;align=left;verticalAlign=middle;spacingTop=-1;spacingLeft=3;spacingRight=3;rotatable=0;labelPosition=right;points=[];portConstraint=eastwest;strokeColor=inherit;" parent="yhKsh583Elh3zXDPcWRW-50" vertex="1">
          <mxGeometry y="78" width="160" height="8" as="geometry" />
        </mxCell>
        <mxCell id="yhKsh583Elh3zXDPcWRW-54" value="# _m_Init(): BOOL" style="text;strokeColor=none;fillColor=none;align=left;verticalAlign=top;spacingLeft=4;spacingRight=4;overflow=hidden;rotatable=0;points=[[0,0.5],[1,0.5]];portConstraint=eastwest;whiteSpace=wrap;html=1;" parent="yhKsh583Elh3zXDPcWRW-50" vertex="1">
          <mxGeometry y="86" width="160" height="26" as="geometry" />
        </mxCell>
        <mxCell id="yhKsh583Elh3zXDPcWRW-55" value="# _m_Inputs(): BOOL" style="text;strokeColor=none;fillColor=none;align=left;verticalAlign=top;spacingLeft=4;spacingRight=4;overflow=hidden;rotatable=0;points=[[0,0.5],[1,0.5]];portConstraint=eastwest;whiteSpace=wrap;html=1;" parent="yhKsh583Elh3zXDPcWRW-50" vertex="1">
          <mxGeometry y="112" width="160" height="26" as="geometry" />
        </mxCell>
        <mxCell id="yhKsh583Elh3zXDPcWRW-56" value="# _m_Hmi(): BOOL" style="text;strokeColor=none;fillColor=none;align=left;verticalAlign=top;spacingLeft=4;spacingRight=4;overflow=hidden;rotatable=0;points=[[0,0.5],[1,0.5]];portConstraint=eastwest;whiteSpace=wrap;html=1;" parent="yhKsh583Elh3zXDPcWRW-50" vertex="1">
          <mxGeometry y="138" width="160" height="26" as="geometry" />
        </mxCell>
        <mxCell id="yhKsh583Elh3zXDPcWRW-57" value="# _m_Devices(): BOOL" style="text;strokeColor=none;fillColor=none;align=left;verticalAlign=top;spacingLeft=4;spacingRight=4;overflow=hidden;rotatable=0;points=[[0,0.5],[1,0.5]];portConstraint=eastwest;whiteSpace=wrap;html=1;" parent="yhKsh583Elh3zXDPcWRW-50" vertex="1">
          <mxGeometry y="164" width="160" height="26" as="geometry" />
        </mxCell>
        <mxCell id="yhKsh583Elh3zXDPcWRW-58" value="# _m_Alarms(): BOOL" style="text;strokeColor=none;fillColor=none;align=left;verticalAlign=top;spacingLeft=4;spacingRight=4;overflow=hidden;rotatable=0;points=[[0,0.5],[1,0.5]];portConstraint=eastwest;whiteSpace=wrap;html=1;" parent="yhKsh583Elh3zXDPcWRW-50" vertex="1">
          <mxGeometry y="190" width="160" height="26" as="geometry" />
        </mxCell>
        <mxCell id="yhKsh583Elh3zXDPcWRW-59" value="# _m_Outputs(): BOOL" style="text;strokeColor=none;fillColor=none;align=left;verticalAlign=top;spacingLeft=4;spacingRight=4;overflow=hidden;rotatable=0;points=[[0,0.5],[1,0.5]];portConstraint=eastwest;whiteSpace=wrap;html=1;" parent="yhKsh583Elh3zXDPcWRW-50" vertex="1">
          <mxGeometry y="216" width="160" height="26" as="geometry" />
        </mxCell>
        <mxCell id="yhKsh583Elh3zXDPcWRW-60" value="" style="line;strokeWidth=1;fillColor=none;align=left;verticalAlign=middle;spacingTop=-1;spacingLeft=3;spacingRight=3;rotatable=0;labelPosition=right;points=[];portConstraint=eastwest;strokeColor=inherit;" parent="yhKsh583Elh3zXDPcWRW-50" vertex="1">
          <mxGeometry y="242" width="160" height="8" as="geometry" />
        </mxCell>
        <mxCell id="yhKsh583Elh3zXDPcWRW-61" value="+ m_Stop(): BOOL" style="text;strokeColor=none;fillColor=none;align=left;verticalAlign=top;spacingLeft=4;spacingRight=4;overflow=hidden;rotatable=0;points=[[0,0.5],[1,0.5]];portConstraint=eastwest;whiteSpace=wrap;html=1;" parent="yhKsh583Elh3zXDPcWRW-50" vertex="1">
          <mxGeometry y="250" width="160" height="26" as="geometry" />
        </mxCell>
        <mxCell id="yhKsh583Elh3zXDPcWRW-62" value="I_Valve" style="swimlane;fontStyle=1;align=center;verticalAlign=top;childLayout=stackLayout;horizontal=1;startSize=26;horizontalStack=0;resizeParent=1;resizeParentMax=0;resizeLast=0;collapsible=1;marginBottom=0;whiteSpace=wrap;html=1;" parent="1" vertex="1">
          <mxGeometry x="1075" y="520" width="200" height="242" as="geometry">
            <mxRectangle x="600" y="920" width="80" height="30" as="alternateBounds" />
          </mxGeometry>
        </mxCell>
        <mxCell id="yhKsh583Elh3zXDPcWRW-63" value="+ p_bCfgReverseValve: BOOL" style="text;strokeColor=none;fillColor=none;align=left;verticalAlign=top;spacingLeft=4;spacingRight=4;overflow=hidden;rotatable=0;points=[[0,0.5],[1,0.5]];portConstraint=eastwest;whiteSpace=wrap;html=1;" parent="yhKsh583Elh3zXDPcWRW-62" vertex="1">
          <mxGeometry y="26" width="200" height="26" as="geometry" />
        </mxCell>
        <mxCell id="yhKsh583Elh3zXDPcWRW-64" value="+ p_bStaEnabled: BOOL" style="text;strokeColor=none;fillColor=none;align=left;verticalAlign=top;spacingLeft=4;spacingRight=4;overflow=hidden;rotatable=0;points=[[0,0.5],[1,0.5]];portConstraint=eastwest;whiteSpace=wrap;html=1;" parent="yhKsh583Elh3zXDPcWRW-62" vertex="1">
          <mxGeometry y="52" width="200" height="26" as="geometry" />
        </mxCell>
        <mxCell id="yhKsh583Elh3zXDPcWRW-65" value="+ p_bStaError: BOOL" style="text;strokeColor=none;fillColor=none;align=left;verticalAlign=top;spacingLeft=4;spacingRight=4;overflow=hidden;rotatable=0;points=[[0,0.5],[1,0.5]];portConstraint=eastwest;whiteSpace=wrap;html=1;" parent="yhKsh583Elh3zXDPcWRW-62" vertex="1">
          <mxGeometry y="78" width="200" height="26" as="geometry" />
        </mxCell>
        <mxCell id="yhKsh583Elh3zXDPcWRW-66" value="+ p_bStaValve: BOOL" style="text;strokeColor=none;fillColor=none;align=left;verticalAlign=top;spacingLeft=4;spacingRight=4;overflow=hidden;rotatable=0;points=[[0,0.5],[1,0.5]];portConstraint=eastwest;whiteSpace=wrap;html=1;" parent="yhKsh583Elh3zXDPcWRW-62" vertex="1">
          <mxGeometry y="104" width="200" height="26" as="geometry" />
        </mxCell>
        <mxCell id="yhKsh583Elh3zXDPcWRW-67" value="+ p_eCtrlMode: E_CtrlMode" style="text;strokeColor=none;fillColor=none;align=left;verticalAlign=top;spacingLeft=4;spacingRight=4;overflow=hidden;rotatable=0;points=[[0,0.5],[1,0.5]];portConstraint=eastwest;whiteSpace=wrap;html=1;" parent="yhKsh583Elh3zXDPcWRW-62" vertex="1">
          <mxGeometry y="130" width="200" height="26" as="geometry" />
        </mxCell>
        <mxCell id="yhKsh583Elh3zXDPcWRW-68" value="+ p_sCmName: STRING" style="text;strokeColor=none;fillColor=none;align=left;verticalAlign=top;spacingLeft=4;spacingRight=4;overflow=hidden;rotatable=0;points=[[0,0.5],[1,0.5]];portConstraint=eastwest;whiteSpace=wrap;html=1;" parent="yhKsh583Elh3zXDPcWRW-62" vertex="1">
          <mxGeometry y="156" width="200" height="26" as="geometry" />
        </mxCell>
        <mxCell id="yhKsh583Elh3zXDPcWRW-69" value="" style="line;strokeWidth=1;fillColor=none;align=left;verticalAlign=middle;spacingTop=-1;spacingLeft=3;spacingRight=3;rotatable=0;labelPosition=right;points=[];portConstraint=eastwest;strokeColor=inherit;" parent="yhKsh583Elh3zXDPcWRW-62" vertex="1">
          <mxGeometry y="182" width="200" height="8" as="geometry" />
        </mxCell>
        <mxCell id="yhKsh583Elh3zXDPcWRW-70" value="+ m_On(): BOOL" style="text;strokeColor=none;fillColor=none;align=left;verticalAlign=top;spacingLeft=4;spacingRight=4;overflow=hidden;rotatable=0;points=[[0,0.5],[1,0.5]];portConstraint=eastwest;whiteSpace=wrap;html=1;" parent="yhKsh583Elh3zXDPcWRW-62" vertex="1">
          <mxGeometry y="190" width="200" height="26" as="geometry" />
        </mxCell>
        <mxCell id="yhKsh583Elh3zXDPcWRW-71" value="+ m_Off(): BOOL" style="text;strokeColor=none;fillColor=none;align=left;verticalAlign=top;spacingLeft=4;spacingRight=4;overflow=hidden;rotatable=0;points=[[0,0.5],[1,0.5]];portConstraint=eastwest;whiteSpace=wrap;html=1;" parent="yhKsh583Elh3zXDPcWRW-62" vertex="1">
          <mxGeometry y="216" width="200" height="26" as="geometry" />
        </mxCell>
        <mxCell id="yhKsh583Elh3zXDPcWRW-72" value="" style="endArrow=diamondThin;endFill=1;endSize=24;html=1;rounded=0;edgeStyle=orthogonalEdgeStyle;" parent="1" source="yhKsh583Elh3zXDPcWRW-62" target="yhKsh583Elh3zXDPcWRW-50" edge="1">
          <mxGeometry width="160" relative="1" as="geometry">
            <mxPoint x="1025" y="590" as="sourcePoint" />
            <mxPoint x="1185" y="590" as="targetPoint" />
          </mxGeometry>
        </mxCell>
        <mxCell id="yhKsh583Elh3zXDPcWRW-73" value="Extends" style="endArrow=block;endSize=16;endFill=0;html=1;rounded=0;edgeStyle=orthogonalEdgeStyle;" parent="1" source="yhKsh583Elh3zXDPcWRW-50" target="yhKsh583Elh3zXDPcWRW-8" edge="1">
          <mxGeometry x="-0.943" width="160" relative="1" as="geometry">
            <mxPoint x="185" y="490" as="sourcePoint" />
            <mxPoint x="445" y="418" as="targetPoint" />
            <Array as="points">
              <mxPoint x="915" y="440" />
              <mxPoint x="435" y="440" />
            </Array>
            <mxPoint as="offset" />
          </mxGeometry>
        </mxCell>
        <mxCell id="yhKsh583Elh3zXDPcWRW-74" value="CM_ValveWithDoubleFB" style="swimlane;fontStyle=1;align=center;verticalAlign=top;childLayout=stackLayout;horizontal=1;startSize=26;horizontalStack=0;resizeParent=1;resizeParentMax=0;resizeLast=0;collapsible=1;marginBottom=0;whiteSpace=wrap;html=1;" parent="1" vertex="1">
          <mxGeometry x="795" y="840" width="205" height="138" as="geometry">
            <mxRectangle x="360" y="920" width="130" height="30" as="alternateBounds" />
          </mxGeometry>
        </mxCell>
        <mxCell id="yhKsh583Elh3zXDPcWRW-75" value="+ I_bStaValveIsOn2:&amp;nbsp;AT %I* : BOOL" style="text;strokeColor=none;fillColor=none;align=left;verticalAlign=top;spacingLeft=4;spacingRight=4;overflow=hidden;rotatable=0;points=[[0,0.5],[1,0.5]];portConstraint=eastwest;whiteSpace=wrap;html=1;" parent="yhKsh583Elh3zXDPcWRW-74" vertex="1">
          <mxGeometry y="26" width="205" height="26" as="geometry" />
        </mxCell>
        <mxCell id="yhKsh583Elh3zXDPcWRW-76" value="+ I_bStaValveIsOff2 AT %I* : BOOL" style="text;strokeColor=none;fillColor=none;align=left;verticalAlign=top;spacingLeft=4;spacingRight=4;overflow=hidden;rotatable=0;points=[[0,0.5],[1,0.5]];portConstraint=eastwest;whiteSpace=wrap;html=1;" parent="yhKsh583Elh3zXDPcWRW-74" vertex="1">
          <mxGeometry y="52" width="205" height="26" as="geometry" />
        </mxCell>
        <mxCell id="yhKsh583Elh3zXDPcWRW-77" value="" style="line;strokeWidth=1;fillColor=none;align=left;verticalAlign=middle;spacingTop=-1;spacingLeft=3;spacingRight=3;rotatable=0;labelPosition=right;points=[];portConstraint=eastwest;strokeColor=inherit;" parent="yhKsh583Elh3zXDPcWRW-74" vertex="1">
          <mxGeometry y="78" width="205" height="8" as="geometry" />
        </mxCell>
        <mxCell id="yhKsh583Elh3zXDPcWRW-78" value="# _m_Inputs(): BOOL" style="text;strokeColor=none;fillColor=none;align=left;verticalAlign=top;spacingLeft=4;spacingRight=4;overflow=hidden;rotatable=0;points=[[0,0.5],[1,0.5]];portConstraint=eastwest;whiteSpace=wrap;html=1;" parent="yhKsh583Elh3zXDPcWRW-74" vertex="1">
          <mxGeometry y="86" width="205" height="26" as="geometry" />
        </mxCell>
        <mxCell id="yhKsh583Elh3zXDPcWRW-79" value="# _m_Alarms(): BOOL" style="text;strokeColor=none;fillColor=none;align=left;verticalAlign=top;spacingLeft=4;spacingRight=4;overflow=hidden;rotatable=0;points=[[0,0.5],[1,0.5]];portConstraint=eastwest;whiteSpace=wrap;html=1;" parent="yhKsh583Elh3zXDPcWRW-74" vertex="1">
          <mxGeometry y="112" width="205" height="26" as="geometry" />
        </mxCell>
        <mxCell id="yhKsh583Elh3zXDPcWRW-80" value="Extends" style="endArrow=block;endSize=16;endFill=0;html=1;rounded=0;edgeStyle=orthogonalEdgeStyle;" parent="1" source="yhKsh583Elh3zXDPcWRW-74" target="yhKsh583Elh3zXDPcWRW-50" edge="1">
          <mxGeometry x="-0.0476" width="160" relative="1" as="geometry">
            <mxPoint x="735" y="982" as="sourcePoint" />
            <mxPoint x="255" y="910" as="targetPoint" />
            <Array as="points">
              <mxPoint x="915" y="750" />
              <mxPoint x="915" y="750" />
            </Array>
            <mxPoint as="offset" />
          </mxGeometry>
        </mxCell>
        <mxCell id="wMIjjK8L3fGLdCoGTlSo-1" value="CM_DockingClamps" style="swimlane;fontStyle=1;align=center;verticalAlign=top;childLayout=stackLayout;horizontal=1;startSize=26;horizontalStack=0;resizeParent=1;resizeParentMax=0;resizeLast=0;collapsible=1;marginBottom=0;whiteSpace=wrap;html=1;" vertex="1" parent="1">
          <mxGeometry x="1200" y="880" width="320" height="414" as="geometry">
            <mxRectangle x="360" y="520" width="90" height="30" as="alternateBounds" />
          </mxGeometry>
        </mxCell>
        <mxCell id="wMIjjK8L3fGLdCoGTlSo-2" value="- cmValveDockingClampsUpper: CM_ValveWithDoubleFB" style="text;strokeColor=none;fillColor=none;align=left;verticalAlign=top;spacingLeft=4;spacingRight=4;overflow=hidden;rotatable=0;points=[[0,0.5],[1,0.5]];portConstraint=eastwest;whiteSpace=wrap;html=1;" vertex="1" parent="wMIjjK8L3fGLdCoGTlSo-1">
          <mxGeometry y="26" width="320" height="26" as="geometry" />
        </mxCell>
        <mxCell id="wMIjjK8L3fGLdCoGTlSo-3" value="- cmValveDockingClampsLower: CM_ValveWithDoubleFB" style="text;strokeColor=none;fillColor=none;align=left;verticalAlign=top;spacingLeft=4;spacingRight=4;overflow=hidden;rotatable=0;points=[[0,0.5],[1,0.5]];portConstraint=eastwest;whiteSpace=wrap;html=1;" vertex="1" parent="wMIjjK8L3fGLdCoGTlSo-1">
          <mxGeometry y="52" width="320" height="26" as="geometry" />
        </mxCell>
        <mxCell id="wMIjjK8L3fGLdCoGTlSo-6" value="" style="line;strokeWidth=1;fillColor=none;align=left;verticalAlign=middle;spacingTop=-1;spacingLeft=3;spacingRight=3;rotatable=0;labelPosition=right;points=[];portConstraint=eastwest;strokeColor=inherit;" vertex="1" parent="wMIjjK8L3fGLdCoGTlSo-1">
          <mxGeometry y="78" width="320" height="8" as="geometry" />
        </mxCell>
        <mxCell id="wMIjjK8L3fGLdCoGTlSo-7" value="+ p_bStaClamps: BOOL" style="text;strokeColor=none;fillColor=none;align=left;verticalAlign=top;spacingLeft=4;spacingRight=4;overflow=hidden;rotatable=0;points=[[0,0.5],[1,0.5]];portConstraint=eastwest;whiteSpace=wrap;html=1;" vertex="1" parent="wMIjjK8L3fGLdCoGTlSo-1">
          <mxGeometry y="86" width="320" height="26" as="geometry" />
        </mxCell>
        <mxCell id="wMIjjK8L3fGLdCoGTlSo-33" value="+ p_bStaIsOpened: BOOL" style="text;strokeColor=none;fillColor=none;align=left;verticalAlign=top;spacingLeft=4;spacingRight=4;overflow=hidden;rotatable=0;points=[[0,0.5],[1,0.5]];portConstraint=eastwest;whiteSpace=wrap;html=1;" vertex="1" parent="wMIjjK8L3fGLdCoGTlSo-1">
          <mxGeometry y="112" width="320" height="26" as="geometry" />
        </mxCell>
        <mxCell id="wMIjjK8L3fGLdCoGTlSo-17" value="+ p_bStaIsClosed: BOOL" style="text;strokeColor=none;fillColor=none;align=left;verticalAlign=top;spacingLeft=4;spacingRight=4;overflow=hidden;rotatable=0;points=[[0,0.5],[1,0.5]];portConstraint=eastwest;whiteSpace=wrap;html=1;" vertex="1" parent="wMIjjK8L3fGLdCoGTlSo-1">
          <mxGeometry y="138" width="320" height="26" as="geometry" />
        </mxCell>
        <mxCell id="wMIjjK8L3fGLdCoGTlSo-15" value="" style="line;strokeWidth=1;fillColor=none;align=left;verticalAlign=middle;spacingTop=-1;spacingLeft=3;spacingRight=3;rotatable=0;labelPosition=right;points=[];portConstraint=eastwest;strokeColor=inherit;" vertex="1" parent="wMIjjK8L3fGLdCoGTlSo-1">
          <mxGeometry y="164" width="320" height="8" as="geometry" />
        </mxCell>
        <mxCell id="wMIjjK8L3fGLdCoGTlSo-34" value="+ m_Open(): BOOL" style="text;strokeColor=none;fillColor=none;align=left;verticalAlign=top;spacingLeft=4;spacingRight=4;overflow=hidden;rotatable=0;points=[[0,0.5],[1,0.5]];portConstraint=eastwest;whiteSpace=wrap;html=1;" vertex="1" parent="wMIjjK8L3fGLdCoGTlSo-1">
          <mxGeometry y="172" width="320" height="26" as="geometry" />
        </mxCell>
        <mxCell id="wMIjjK8L3fGLdCoGTlSo-35" value="+ m_Close(): BOOL" style="text;strokeColor=none;fillColor=none;align=left;verticalAlign=top;spacingLeft=4;spacingRight=4;overflow=hidden;rotatable=0;points=[[0,0.5],[1,0.5]];portConstraint=eastwest;whiteSpace=wrap;html=1;" vertex="1" parent="wMIjjK8L3fGLdCoGTlSo-1">
          <mxGeometry y="198" width="320" height="26" as="geometry" />
        </mxCell>
        <mxCell id="wMIjjK8L3fGLdCoGTlSo-36" value="+ m_Stop(): BOOL" style="text;strokeColor=none;fillColor=none;align=left;verticalAlign=top;spacingLeft=4;spacingRight=4;overflow=hidden;rotatable=0;points=[[0,0.5],[1,0.5]];portConstraint=eastwest;whiteSpace=wrap;html=1;" vertex="1" parent="wMIjjK8L3fGLdCoGTlSo-1">
          <mxGeometry y="224" width="320" height="26" as="geometry" />
        </mxCell>
        <mxCell id="wMIjjK8L3fGLdCoGTlSo-8" value="" style="line;strokeWidth=1;fillColor=none;align=left;verticalAlign=middle;spacingTop=-1;spacingLeft=3;spacingRight=3;rotatable=0;labelPosition=right;points=[];portConstraint=eastwest;strokeColor=inherit;" vertex="1" parent="wMIjjK8L3fGLdCoGTlSo-1">
          <mxGeometry y="250" width="320" height="8" as="geometry" />
        </mxCell>
        <mxCell id="wMIjjK8L3fGLdCoGTlSo-9" value="# _m_Init(): BOOL" style="text;strokeColor=none;fillColor=none;align=left;verticalAlign=top;spacingLeft=4;spacingRight=4;overflow=hidden;rotatable=0;points=[[0,0.5],[1,0.5]];portConstraint=eastwest;whiteSpace=wrap;html=1;" vertex="1" parent="wMIjjK8L3fGLdCoGTlSo-1">
          <mxGeometry y="258" width="320" height="26" as="geometry" />
        </mxCell>
        <mxCell id="wMIjjK8L3fGLdCoGTlSo-10" value="# _m_Inputs: BOOL" style="text;strokeColor=none;fillColor=none;align=left;verticalAlign=top;spacingLeft=4;spacingRight=4;overflow=hidden;rotatable=0;points=[[0,0.5],[1,0.5]];portConstraint=eastwest;whiteSpace=wrap;html=1;" vertex="1" parent="wMIjjK8L3fGLdCoGTlSo-1">
          <mxGeometry y="284" width="320" height="26" as="geometry" />
        </mxCell>
        <mxCell id="wMIjjK8L3fGLdCoGTlSo-11" value="# _m_Hmi(): BOOL" style="text;strokeColor=none;fillColor=none;align=left;verticalAlign=top;spacingLeft=4;spacingRight=4;overflow=hidden;rotatable=0;points=[[0,0.5],[1,0.5]];portConstraint=eastwest;whiteSpace=wrap;html=1;" vertex="1" parent="wMIjjK8L3fGLdCoGTlSo-1">
          <mxGeometry y="310" width="320" height="26" as="geometry" />
        </mxCell>
        <mxCell id="wMIjjK8L3fGLdCoGTlSo-12" value="# _m_Devices(): BOOL" style="text;strokeColor=none;fillColor=none;align=left;verticalAlign=top;spacingLeft=4;spacingRight=4;overflow=hidden;rotatable=0;points=[[0,0.5],[1,0.5]];portConstraint=eastwest;whiteSpace=wrap;html=1;" vertex="1" parent="wMIjjK8L3fGLdCoGTlSo-1">
          <mxGeometry y="336" width="320" height="26" as="geometry" />
        </mxCell>
        <mxCell id="wMIjjK8L3fGLdCoGTlSo-13" value="# _m_Alarms(): BOOL" style="text;strokeColor=none;fillColor=none;align=left;verticalAlign=top;spacingLeft=4;spacingRight=4;overflow=hidden;rotatable=0;points=[[0,0.5],[1,0.5]];portConstraint=eastwest;whiteSpace=wrap;html=1;" vertex="1" parent="wMIjjK8L3fGLdCoGTlSo-1">
          <mxGeometry y="362" width="320" height="26" as="geometry" />
        </mxCell>
        <mxCell id="wMIjjK8L3fGLdCoGTlSo-14" value="# _m_Outputs: BOOL" style="text;strokeColor=none;fillColor=none;align=left;verticalAlign=top;spacingLeft=4;spacingRight=4;overflow=hidden;rotatable=0;points=[[0,0.5],[1,0.5]];portConstraint=eastwest;whiteSpace=wrap;html=1;" vertex="1" parent="wMIjjK8L3fGLdCoGTlSo-1">
          <mxGeometry y="388" width="320" height="26" as="geometry" />
        </mxCell>
        <mxCell id="wMIjjK8L3fGLdCoGTlSo-37" value="Extends" style="endArrow=block;endSize=16;endFill=0;html=1;rounded=0;edgeStyle=orthogonalEdgeStyle;" edge="1" parent="1" source="wMIjjK8L3fGLdCoGTlSo-1" target="yhKsh583Elh3zXDPcWRW-8">
          <mxGeometry x="-0.943" width="160" relative="1" as="geometry">
            <mxPoint x="925" y="490" as="sourcePoint" />
            <mxPoint x="445" y="418" as="targetPoint" />
            <Array as="points">
              <mxPoint x="1360" y="1237" />
              <mxPoint x="1360" y="440" />
              <mxPoint x="435" y="440" />
            </Array>
            <mxPoint as="offset" />
          </mxGeometry>
        </mxCell>
        <mxCell id="wMIjjK8L3fGLdCoGTlSo-38" value="" style="endArrow=diamondThin;endFill=1;endSize=24;html=1;rounded=0;edgeStyle=orthogonalEdgeStyle;entryX=0;entryY=0.5;entryDx=0;entryDy=0;" edge="1" parent="1" source="yhKsh583Elh3zXDPcWRW-74" target="wMIjjK8L3fGLdCoGTlSo-2">
          <mxGeometry width="160" relative="1" as="geometry">
            <mxPoint x="1180" y="920.21" as="sourcePoint" />
            <mxPoint x="1160" y="860" as="targetPoint" />
            <Array as="points">
              <mxPoint x="1120" y="909" />
              <mxPoint x="1120" y="920" />
              <mxPoint x="1200" y="920" />
            </Array>
          </mxGeometry>
        </mxCell>
        <mxCell id="wMIjjK8L3fGLdCoGTlSo-40" value="" style="endArrow=diamondThin;endFill=1;endSize=24;html=1;rounded=0;edgeStyle=orthogonalEdgeStyle;entryX=0;entryY=0.5;entryDx=0;entryDy=0;" edge="1" parent="1" source="yhKsh583Elh3zXDPcWRW-74" target="wMIjjK8L3fGLdCoGTlSo-3">
          <mxGeometry width="160" relative="1" as="geometry">
            <mxPoint x="915" y="919" as="sourcePoint" />
            <mxPoint x="1080" y="930" as="targetPoint" />
            <Array as="points">
              <mxPoint x="1120" y="910" />
              <mxPoint x="1120" y="945" />
            </Array>
          </mxGeometry>
        </mxCell>
        <mxCell id="wMIjjK8L3fGLdCoGTlSo-41" value="CM_UnlockingPins" style="swimlane;fontStyle=1;align=center;verticalAlign=top;childLayout=stackLayout;horizontal=1;startSize=26;horizontalStack=0;resizeParent=1;resizeParentMax=0;resizeLast=0;collapsible=1;marginBottom=0;whiteSpace=wrap;html=1;" vertex="1" parent="1">
          <mxGeometry x="1200" y="1360" width="320" height="414" as="geometry">
            <mxRectangle x="360" y="520" width="90" height="30" as="alternateBounds" />
          </mxGeometry>
        </mxCell>
        <mxCell id="wMIjjK8L3fGLdCoGTlSo-42" value="- cmValveUnlockingPinsUpper: CM_ValveWithFB" style="text;strokeColor=none;fillColor=none;align=left;verticalAlign=top;spacingLeft=4;spacingRight=4;overflow=hidden;rotatable=0;points=[[0,0.5],[1,0.5]];portConstraint=eastwest;whiteSpace=wrap;html=1;" vertex="1" parent="wMIjjK8L3fGLdCoGTlSo-41">
          <mxGeometry y="26" width="320" height="26" as="geometry" />
        </mxCell>
        <mxCell id="wMIjjK8L3fGLdCoGTlSo-43" value="- cmValveUnlockingPinsLower: CM_ValveWithFB" style="text;strokeColor=none;fillColor=none;align=left;verticalAlign=top;spacingLeft=4;spacingRight=4;overflow=hidden;rotatable=0;points=[[0,0.5],[1,0.5]];portConstraint=eastwest;whiteSpace=wrap;html=1;" vertex="1" parent="wMIjjK8L3fGLdCoGTlSo-41">
          <mxGeometry y="52" width="320" height="26" as="geometry" />
        </mxCell>
        <mxCell id="wMIjjK8L3fGLdCoGTlSo-44" value="" style="line;strokeWidth=1;fillColor=none;align=left;verticalAlign=middle;spacingTop=-1;spacingLeft=3;spacingRight=3;rotatable=0;labelPosition=right;points=[];portConstraint=eastwest;strokeColor=inherit;" vertex="1" parent="wMIjjK8L3fGLdCoGTlSo-41">
          <mxGeometry y="78" width="320" height="8" as="geometry" />
        </mxCell>
        <mxCell id="wMIjjK8L3fGLdCoGTlSo-45" value="+ p_bStaPins: BOOL" style="text;strokeColor=none;fillColor=none;align=left;verticalAlign=top;spacingLeft=4;spacingRight=4;overflow=hidden;rotatable=0;points=[[0,0.5],[1,0.5]];portConstraint=eastwest;whiteSpace=wrap;html=1;" vertex="1" parent="wMIjjK8L3fGLdCoGTlSo-41">
          <mxGeometry y="86" width="320" height="26" as="geometry" />
        </mxCell>
        <mxCell id="wMIjjK8L3fGLdCoGTlSo-46" value="+ p_bStaIsLocked: BOOL" style="text;strokeColor=none;fillColor=none;align=left;verticalAlign=top;spacingLeft=4;spacingRight=4;overflow=hidden;rotatable=0;points=[[0,0.5],[1,0.5]];portConstraint=eastwest;whiteSpace=wrap;html=1;" vertex="1" parent="wMIjjK8L3fGLdCoGTlSo-41">
          <mxGeometry y="112" width="320" height="26" as="geometry" />
        </mxCell>
        <mxCell id="wMIjjK8L3fGLdCoGTlSo-47" value="+ p_bStaIsUnlocked: BOOL" style="text;strokeColor=none;fillColor=none;align=left;verticalAlign=top;spacingLeft=4;spacingRight=4;overflow=hidden;rotatable=0;points=[[0,0.5],[1,0.5]];portConstraint=eastwest;whiteSpace=wrap;html=1;" vertex="1" parent="wMIjjK8L3fGLdCoGTlSo-41">
          <mxGeometry y="138" width="320" height="26" as="geometry" />
        </mxCell>
        <mxCell id="wMIjjK8L3fGLdCoGTlSo-48" value="" style="line;strokeWidth=1;fillColor=none;align=left;verticalAlign=middle;spacingTop=-1;spacingLeft=3;spacingRight=3;rotatable=0;labelPosition=right;points=[];portConstraint=eastwest;strokeColor=inherit;" vertex="1" parent="wMIjjK8L3fGLdCoGTlSo-41">
          <mxGeometry y="164" width="320" height="8" as="geometry" />
        </mxCell>
        <mxCell id="wMIjjK8L3fGLdCoGTlSo-49" value="+ m_Lock(): BOOL" style="text;strokeColor=none;fillColor=none;align=left;verticalAlign=top;spacingLeft=4;spacingRight=4;overflow=hidden;rotatable=0;points=[[0,0.5],[1,0.5]];portConstraint=eastwest;whiteSpace=wrap;html=1;" vertex="1" parent="wMIjjK8L3fGLdCoGTlSo-41">
          <mxGeometry y="172" width="320" height="26" as="geometry" />
        </mxCell>
        <mxCell id="wMIjjK8L3fGLdCoGTlSo-51" value="+ m_Unlock: BOOL" style="text;strokeColor=none;fillColor=none;align=left;verticalAlign=top;spacingLeft=4;spacingRight=4;overflow=hidden;rotatable=0;points=[[0,0.5],[1,0.5]];portConstraint=eastwest;whiteSpace=wrap;html=1;" vertex="1" parent="wMIjjK8L3fGLdCoGTlSo-41">
          <mxGeometry y="198" width="320" height="26" as="geometry" />
        </mxCell>
        <mxCell id="wMIjjK8L3fGLdCoGTlSo-50" value="+ m_Stop(): BOOL" style="text;strokeColor=none;fillColor=none;align=left;verticalAlign=top;spacingLeft=4;spacingRight=4;overflow=hidden;rotatable=0;points=[[0,0.5],[1,0.5]];portConstraint=eastwest;whiteSpace=wrap;html=1;" vertex="1" parent="wMIjjK8L3fGLdCoGTlSo-41">
          <mxGeometry y="224" width="320" height="26" as="geometry" />
        </mxCell>
        <mxCell id="wMIjjK8L3fGLdCoGTlSo-52" value="" style="line;strokeWidth=1;fillColor=none;align=left;verticalAlign=middle;spacingTop=-1;spacingLeft=3;spacingRight=3;rotatable=0;labelPosition=right;points=[];portConstraint=eastwest;strokeColor=inherit;" vertex="1" parent="wMIjjK8L3fGLdCoGTlSo-41">
          <mxGeometry y="250" width="320" height="8" as="geometry" />
        </mxCell>
        <mxCell id="wMIjjK8L3fGLdCoGTlSo-53" value="# _m_Init(): BOOL" style="text;strokeColor=none;fillColor=none;align=left;verticalAlign=top;spacingLeft=4;spacingRight=4;overflow=hidden;rotatable=0;points=[[0,0.5],[1,0.5]];portConstraint=eastwest;whiteSpace=wrap;html=1;" vertex="1" parent="wMIjjK8L3fGLdCoGTlSo-41">
          <mxGeometry y="258" width="320" height="26" as="geometry" />
        </mxCell>
        <mxCell id="wMIjjK8L3fGLdCoGTlSo-54" value="# _m_Inputs: BOOL" style="text;strokeColor=none;fillColor=none;align=left;verticalAlign=top;spacingLeft=4;spacingRight=4;overflow=hidden;rotatable=0;points=[[0,0.5],[1,0.5]];portConstraint=eastwest;whiteSpace=wrap;html=1;" vertex="1" parent="wMIjjK8L3fGLdCoGTlSo-41">
          <mxGeometry y="284" width="320" height="26" as="geometry" />
        </mxCell>
        <mxCell id="wMIjjK8L3fGLdCoGTlSo-55" value="# _m_Hmi(): BOOL" style="text;strokeColor=none;fillColor=none;align=left;verticalAlign=top;spacingLeft=4;spacingRight=4;overflow=hidden;rotatable=0;points=[[0,0.5],[1,0.5]];portConstraint=eastwest;whiteSpace=wrap;html=1;" vertex="1" parent="wMIjjK8L3fGLdCoGTlSo-41">
          <mxGeometry y="310" width="320" height="26" as="geometry" />
        </mxCell>
        <mxCell id="wMIjjK8L3fGLdCoGTlSo-56" value="# _m_Devices(): BOOL" style="text;strokeColor=none;fillColor=none;align=left;verticalAlign=top;spacingLeft=4;spacingRight=4;overflow=hidden;rotatable=0;points=[[0,0.5],[1,0.5]];portConstraint=eastwest;whiteSpace=wrap;html=1;" vertex="1" parent="wMIjjK8L3fGLdCoGTlSo-41">
          <mxGeometry y="336" width="320" height="26" as="geometry" />
        </mxCell>
        <mxCell id="wMIjjK8L3fGLdCoGTlSo-57" value="# _m_Alarms(): BOOL" style="text;strokeColor=none;fillColor=none;align=left;verticalAlign=top;spacingLeft=4;spacingRight=4;overflow=hidden;rotatable=0;points=[[0,0.5],[1,0.5]];portConstraint=eastwest;whiteSpace=wrap;html=1;" vertex="1" parent="wMIjjK8L3fGLdCoGTlSo-41">
          <mxGeometry y="362" width="320" height="26" as="geometry" />
        </mxCell>
        <mxCell id="wMIjjK8L3fGLdCoGTlSo-58" value="# _m_Outputs: BOOL" style="text;strokeColor=none;fillColor=none;align=left;verticalAlign=top;spacingLeft=4;spacingRight=4;overflow=hidden;rotatable=0;points=[[0,0.5],[1,0.5]];portConstraint=eastwest;whiteSpace=wrap;html=1;" vertex="1" parent="wMIjjK8L3fGLdCoGTlSo-41">
          <mxGeometry y="388" width="320" height="26" as="geometry" />
        </mxCell>
        <mxCell id="wMIjjK8L3fGLdCoGTlSo-59" value="Extends" style="endArrow=block;endSize=16;endFill=0;html=1;rounded=0;edgeStyle=orthogonalEdgeStyle;" edge="1" parent="1" source="wMIjjK8L3fGLdCoGTlSo-41" target="yhKsh583Elh3zXDPcWRW-8">
          <mxGeometry x="-0.9824" width="160" relative="1" as="geometry">
            <mxPoint x="1555" y="862" as="sourcePoint" />
            <mxPoint x="630" y="390" as="targetPoint" />
            <Array as="points">
              <mxPoint x="1360" y="1320" />
              <mxPoint x="1555" y="1320" />
              <mxPoint x="1555" y="422" />
              <mxPoint x="435" y="422" />
            </Array>
            <mxPoint as="offset" />
          </mxGeometry>
        </mxCell>
        <mxCell id="wMIjjK8L3fGLdCoGTlSo-60" value="" style="endArrow=diamondThin;endFill=1;endSize=24;html=1;rounded=0;edgeStyle=orthogonalEdgeStyle;entryX=0;entryY=0.5;entryDx=0;entryDy=0;" edge="1" parent="1" source="yhKsh583Elh3zXDPcWRW-50" target="wMIjjK8L3fGLdCoGTlSo-42">
          <mxGeometry width="160" relative="1" as="geometry">
            <mxPoint x="365" y="1065" as="sourcePoint" />
            <mxPoint x="530" y="1100" as="targetPoint" />
            <Array as="points">
              <mxPoint x="780" y="618" />
              <mxPoint x="780" y="1399" />
            </Array>
          </mxGeometry>
        </mxCell>
        <mxCell id="wMIjjK8L3fGLdCoGTlSo-61" value="" style="endArrow=diamondThin;endFill=1;endSize=24;html=1;rounded=0;edgeStyle=orthogonalEdgeStyle;entryX=0;entryY=0.5;entryDx=0;entryDy=0;" edge="1" parent="1" source="yhKsh583Elh3zXDPcWRW-50" target="wMIjjK8L3fGLdCoGTlSo-43">
          <mxGeometry width="160" relative="1" as="geometry">
            <mxPoint x="375" y="1075" as="sourcePoint" />
            <mxPoint x="770" y="1099" as="targetPoint" />
            <Array as="points">
              <mxPoint x="780" y="618" />
              <mxPoint x="780" y="1425" />
            </Array>
          </mxGeometry>
        </mxCell>
      </root>
    </mxGraphModel>
  </diagram>
  <diagram id="gc6Ivp30RimzJZ-r88NT" name="EM&#39;s">
    <mxGraphModel dx="584" dy="844" grid="1" gridSize="10" guides="1" tooltips="1" connect="1" arrows="1" fold="1" page="1" pageScale="1" pageWidth="850" pageHeight="1100" math="0" shadow="0">
      <root>
        <mxCell id="0" />
        <mxCell id="1" parent="0" />
        <mxCell id="MQBi__SkSl7cDb9nEH-L-1" value="EM_Base" style="swimlane;fontStyle=1;align=center;verticalAlign=top;childLayout=stackLayout;horizontal=1;startSize=26;horizontalStack=0;resizeParent=1;resizeParentMax=0;resizeLast=0;collapsible=1;marginBottom=0;whiteSpace=wrap;html=1;" parent="1" vertex="1">
          <mxGeometry x="960" y="120" width="160" height="242" as="geometry">
            <mxRectangle x="360" y="520" width="90" height="30" as="alternateBounds" />
          </mxGeometry>
        </mxCell>
        <mxCell id="MQBi__SkSl7cDb9nEH-L-2" value="+ m_Main(): BOOL" style="text;strokeColor=none;fillColor=none;align=left;verticalAlign=top;spacingLeft=4;spacingRight=4;overflow=hidden;rotatable=0;points=[[0,0.5],[1,0.5]];portConstraint=eastwest;whiteSpace=wrap;html=1;" parent="MQBi__SkSl7cDb9nEH-L-1" vertex="1">
          <mxGeometry y="26" width="160" height="26" as="geometry" />
        </mxCell>
        <mxCell id="MQBi__SkSl7cDb9nEH-L-3" value="" style="line;strokeWidth=1;fillColor=none;align=left;verticalAlign=middle;spacingTop=-1;spacingLeft=3;spacingRight=3;rotatable=0;labelPosition=right;points=[];portConstraint=eastwest;strokeColor=inherit;" parent="MQBi__SkSl7cDb9nEH-L-1" vertex="1">
          <mxGeometry y="52" width="160" height="8" as="geometry" />
        </mxCell>
        <mxCell id="MQBi__SkSl7cDb9nEH-L-4" value="# _m_Init(): BOOL" style="text;strokeColor=none;fillColor=none;align=left;verticalAlign=top;spacingLeft=4;spacingRight=4;overflow=hidden;rotatable=0;points=[[0,0.5],[1,0.5]];portConstraint=eastwest;whiteSpace=wrap;html=1;" parent="MQBi__SkSl7cDb9nEH-L-1" vertex="1">
          <mxGeometry y="60" width="160" height="26" as="geometry" />
        </mxCell>
        <mxCell id="MQBi__SkSl7cDb9nEH-L-5" value="# _m_Inputs: BOOL" style="text;strokeColor=none;fillColor=none;align=left;verticalAlign=top;spacingLeft=4;spacingRight=4;overflow=hidden;rotatable=0;points=[[0,0.5],[1,0.5]];portConstraint=eastwest;whiteSpace=wrap;html=1;" parent="MQBi__SkSl7cDb9nEH-L-1" vertex="1">
          <mxGeometry y="86" width="160" height="26" as="geometry" />
        </mxCell>
        <mxCell id="MQBi__SkSl7cDb9nEH-L-6" value="# _m_Params: BOOL" style="text;strokeColor=none;fillColor=none;align=left;verticalAlign=top;spacingLeft=4;spacingRight=4;overflow=hidden;rotatable=0;points=[[0,0.5],[1,0.5]];portConstraint=eastwest;whiteSpace=wrap;html=1;" parent="MQBi__SkSl7cDb9nEH-L-1" vertex="1">
          <mxGeometry y="112" width="160" height="26" as="geometry" />
        </mxCell>
        <mxCell id="MQBi__SkSl7cDb9nEH-L-7" value="# _m_Hmi(): BOOL" style="text;strokeColor=none;fillColor=none;align=left;verticalAlign=top;spacingLeft=4;spacingRight=4;overflow=hidden;rotatable=0;points=[[0,0.5],[1,0.5]];portConstraint=eastwest;whiteSpace=wrap;html=1;" parent="MQBi__SkSl7cDb9nEH-L-1" vertex="1">
          <mxGeometry y="138" width="160" height="26" as="geometry" />
        </mxCell>
        <mxCell id="MQBi__SkSl7cDb9nEH-L-8" value="# _m_Devices(): BOOL" style="text;strokeColor=none;fillColor=none;align=left;verticalAlign=top;spacingLeft=4;spacingRight=4;overflow=hidden;rotatable=0;points=[[0,0.5],[1,0.5]];portConstraint=eastwest;whiteSpace=wrap;html=1;" parent="MQBi__SkSl7cDb9nEH-L-1" vertex="1">
          <mxGeometry y="164" width="160" height="26" as="geometry" />
        </mxCell>
        <mxCell id="MQBi__SkSl7cDb9nEH-L-9" value="# _m_Alarms(): BOOL" style="text;strokeColor=none;fillColor=none;align=left;verticalAlign=top;spacingLeft=4;spacingRight=4;overflow=hidden;rotatable=0;points=[[0,0.5],[1,0.5]];portConstraint=eastwest;whiteSpace=wrap;html=1;" parent="MQBi__SkSl7cDb9nEH-L-1" vertex="1">
          <mxGeometry y="190" width="160" height="26" as="geometry" />
        </mxCell>
        <mxCell id="MQBi__SkSl7cDb9nEH-L-10" value="# _m_Outputs: BOOL" style="text;strokeColor=none;fillColor=none;align=left;verticalAlign=top;spacingLeft=4;spacingRight=4;overflow=hidden;rotatable=0;points=[[0,0.5],[1,0.5]];portConstraint=eastwest;whiteSpace=wrap;html=1;" parent="MQBi__SkSl7cDb9nEH-L-1" vertex="1">
          <mxGeometry y="216" width="160" height="26" as="geometry" />
        </mxCell>
        <mxCell id="MQBi__SkSl7cDb9nEH-L-11" value="I_EM_Base" style="swimlane;fontStyle=1;align=center;verticalAlign=top;childLayout=stackLayout;horizontal=1;startSize=26;horizontalStack=0;resizeParent=1;resizeParentMax=0;resizeLast=0;collapsible=1;marginBottom=0;whiteSpace=wrap;html=1;" parent="1" vertex="1">
          <mxGeometry x="1200" y="160" width="200" height="130" as="geometry">
            <mxRectangle x="600" y="920" width="80" height="30" as="alternateBounds" />
          </mxGeometry>
        </mxCell>
        <mxCell id="MQBi__SkSl7cDb9nEH-L-12" value="+ p_bStaEnabled: BOOL" style="text;strokeColor=none;fillColor=none;align=left;verticalAlign=top;spacingLeft=4;spacingRight=4;overflow=hidden;rotatable=0;points=[[0,0.5],[1,0.5]];portConstraint=eastwest;whiteSpace=wrap;html=1;" parent="MQBi__SkSl7cDb9nEH-L-11" vertex="1">
          <mxGeometry y="26" width="200" height="26" as="geometry" />
        </mxCell>
        <mxCell id="MQBi__SkSl7cDb9nEH-L-13" value="+ p_bStaError: BOOL" style="text;strokeColor=none;fillColor=none;align=left;verticalAlign=top;spacingLeft=4;spacingRight=4;overflow=hidden;rotatable=0;points=[[0,0.5],[1,0.5]];portConstraint=eastwest;whiteSpace=wrap;html=1;" parent="MQBi__SkSl7cDb9nEH-L-11" vertex="1">
          <mxGeometry y="52" width="200" height="26" as="geometry" />
        </mxCell>
        <mxCell id="MQBi__SkSl7cDb9nEH-L-14" value="+ p_eCtrlMode: E_CtrlMode" style="text;strokeColor=none;fillColor=none;align=left;verticalAlign=top;spacingLeft=4;spacingRight=4;overflow=hidden;rotatable=0;points=[[0,0.5],[1,0.5]];portConstraint=eastwest;whiteSpace=wrap;html=1;" parent="MQBi__SkSl7cDb9nEH-L-11" vertex="1">
          <mxGeometry y="78" width="200" height="26" as="geometry" />
        </mxCell>
        <mxCell id="MQBi__SkSl7cDb9nEH-L-15" value="+ p_sNameEM: STRING" style="text;strokeColor=none;fillColor=none;align=left;verticalAlign=top;spacingLeft=4;spacingRight=4;overflow=hidden;rotatable=0;points=[[0,0.5],[1,0.5]];portConstraint=eastwest;whiteSpace=wrap;html=1;" parent="MQBi__SkSl7cDb9nEH-L-11" vertex="1">
          <mxGeometry y="104" width="200" height="26" as="geometry" />
        </mxCell>
        <mxCell id="MQBi__SkSl7cDb9nEH-L-16" value="" style="endArrow=diamondThin;endFill=1;endSize=24;html=1;rounded=0;edgeStyle=orthogonalEdgeStyle;" parent="1" source="MQBi__SkSl7cDb9nEH-L-11" target="MQBi__SkSl7cDb9nEH-L-1" edge="1">
          <mxGeometry width="160" relative="1" as="geometry">
            <mxPoint x="1150" y="233" as="sourcePoint" />
            <mxPoint x="1120" y="261" as="targetPoint" />
          </mxGeometry>
        </mxCell>
        <mxCell id="MQBi__SkSl7cDb9nEH-L-17" value="EM_Doors" style="swimlane;fontStyle=1;align=center;verticalAlign=top;childLayout=stackLayout;horizontal=1;startSize=26;horizontalStack=0;resizeParent=1;resizeParentMax=0;resizeLast=0;collapsible=1;marginBottom=0;whiteSpace=wrap;html=1;" parent="1" vertex="1">
          <mxGeometry x="960" y="440" width="160" height="242" as="geometry">
            <mxRectangle x="360" y="520" width="90" height="30" as="alternateBounds" />
          </mxGeometry>
        </mxCell>
        <mxCell id="MQBi__SkSl7cDb9nEH-L-18" value="+ m_Main(): BOOL" style="text;strokeColor=none;fillColor=none;align=left;verticalAlign=top;spacingLeft=4;spacingRight=4;overflow=hidden;rotatable=0;points=[[0,0.5],[1,0.5]];portConstraint=eastwest;whiteSpace=wrap;html=1;" parent="MQBi__SkSl7cDb9nEH-L-17" vertex="1">
          <mxGeometry y="26" width="160" height="26" as="geometry" />
        </mxCell>
        <mxCell id="MQBi__SkSl7cDb9nEH-L-19" value="" style="line;strokeWidth=1;fillColor=none;align=left;verticalAlign=middle;spacingTop=-1;spacingLeft=3;spacingRight=3;rotatable=0;labelPosition=right;points=[];portConstraint=eastwest;strokeColor=inherit;" parent="MQBi__SkSl7cDb9nEH-L-17" vertex="1">
          <mxGeometry y="52" width="160" height="8" as="geometry" />
        </mxCell>
        <mxCell id="MQBi__SkSl7cDb9nEH-L-20" value="# _m_Init(): BOOL" style="text;strokeColor=none;fillColor=none;align=left;verticalAlign=top;spacingLeft=4;spacingRight=4;overflow=hidden;rotatable=0;points=[[0,0.5],[1,0.5]];portConstraint=eastwest;whiteSpace=wrap;html=1;" parent="MQBi__SkSl7cDb9nEH-L-17" vertex="1">
          <mxGeometry y="60" width="160" height="26" as="geometry" />
        </mxCell>
        <mxCell id="MQBi__SkSl7cDb9nEH-L-21" value="# _m_Inputs: BOOL" style="text;strokeColor=none;fillColor=none;align=left;verticalAlign=top;spacingLeft=4;spacingRight=4;overflow=hidden;rotatable=0;points=[[0,0.5],[1,0.5]];portConstraint=eastwest;whiteSpace=wrap;html=1;" parent="MQBi__SkSl7cDb9nEH-L-17" vertex="1">
          <mxGeometry y="86" width="160" height="26" as="geometry" />
        </mxCell>
        <mxCell id="MQBi__SkSl7cDb9nEH-L-22" value="# _m_Params: BOOL" style="text;strokeColor=none;fillColor=none;align=left;verticalAlign=top;spacingLeft=4;spacingRight=4;overflow=hidden;rotatable=0;points=[[0,0.5],[1,0.5]];portConstraint=eastwest;whiteSpace=wrap;html=1;" parent="MQBi__SkSl7cDb9nEH-L-17" vertex="1">
          <mxGeometry y="112" width="160" height="26" as="geometry" />
        </mxCell>
        <mxCell id="MQBi__SkSl7cDb9nEH-L-23" value="# _m_Hmi(): BOOL" style="text;strokeColor=none;fillColor=none;align=left;verticalAlign=top;spacingLeft=4;spacingRight=4;overflow=hidden;rotatable=0;points=[[0,0.5],[1,0.5]];portConstraint=eastwest;whiteSpace=wrap;html=1;" parent="MQBi__SkSl7cDb9nEH-L-17" vertex="1">
          <mxGeometry y="138" width="160" height="26" as="geometry" />
        </mxCell>
        <mxCell id="MQBi__SkSl7cDb9nEH-L-24" value="# _m_Devices(): BOOL" style="text;strokeColor=none;fillColor=none;align=left;verticalAlign=top;spacingLeft=4;spacingRight=4;overflow=hidden;rotatable=0;points=[[0,0.5],[1,0.5]];portConstraint=eastwest;whiteSpace=wrap;html=1;" parent="MQBi__SkSl7cDb9nEH-L-17" vertex="1">
          <mxGeometry y="164" width="160" height="26" as="geometry" />
        </mxCell>
        <mxCell id="MQBi__SkSl7cDb9nEH-L-25" value="# _m_Alarms(): BOOL" style="text;strokeColor=none;fillColor=none;align=left;verticalAlign=top;spacingLeft=4;spacingRight=4;overflow=hidden;rotatable=0;points=[[0,0.5],[1,0.5]];portConstraint=eastwest;whiteSpace=wrap;html=1;" parent="MQBi__SkSl7cDb9nEH-L-17" vertex="1">
          <mxGeometry y="190" width="160" height="26" as="geometry" />
        </mxCell>
        <mxCell id="MQBi__SkSl7cDb9nEH-L-26" value="# _m_Outputs: BOOL" style="text;strokeColor=none;fillColor=none;align=left;verticalAlign=top;spacingLeft=4;spacingRight=4;overflow=hidden;rotatable=0;points=[[0,0.5],[1,0.5]];portConstraint=eastwest;whiteSpace=wrap;html=1;" parent="MQBi__SkSl7cDb9nEH-L-17" vertex="1">
          <mxGeometry y="216" width="160" height="26" as="geometry" />
        </mxCell>
        <mxCell id="MQBi__SkSl7cDb9nEH-L-27" value="Extends" style="endArrow=block;endSize=16;endFill=0;html=1;rounded=0;edgeStyle=orthogonalEdgeStyle;" parent="1" source="MQBi__SkSl7cDb9nEH-L-17" target="MQBi__SkSl7cDb9nEH-L-1" edge="1">
          <mxGeometry x="-0.4872" width="160" relative="1" as="geometry">
            <mxPoint x="830" y="402" as="sourcePoint" />
            <mxPoint x="350" y="330" as="targetPoint" />
            <Array as="points">
              <mxPoint x="1040" y="380" />
              <mxPoint x="1040" y="380" />
            </Array>
            <mxPoint as="offset" />
          </mxGeometry>
        </mxCell>
        <mxCell id="MQBi__SkSl7cDb9nEH-L-28" value="+ m_OpenSpeedDoorOuter(): BOOL" style="text;strokeColor=none;fillColor=none;align=left;verticalAlign=top;spacingLeft=4;spacingRight=4;overflow=hidden;rotatable=0;points=[[0,0.5],[1,0.5]];portConstraint=eastwest;whiteSpace=wrap;html=1;" parent="1" vertex="1">
          <mxGeometry x="920" y="720" width="240" height="26" as="geometry" />
        </mxCell>
        <mxCell id="8891avYPYfDxxBsY1c42-1" value="+ m_CloseSpeedDoorOuter(): BOOL" style="text;strokeColor=none;fillColor=none;align=left;verticalAlign=top;spacingLeft=4;spacingRight=4;overflow=hidden;rotatable=0;points=[[0,0.5],[1,0.5]];portConstraint=eastwest;whiteSpace=wrap;html=1;" parent="1" vertex="1">
          <mxGeometry x="920" y="740" width="240" height="26" as="geometry" />
        </mxCell>
        <mxCell id="8891avYPYfDxxBsY1c42-2" value="+ m_ApplyLockCleanroomDoor&lt;span style=&quot;background-color: initial;&quot;&gt;(): BOOL&lt;/span&gt;" style="text;strokeColor=none;fillColor=none;align=left;verticalAlign=top;spacingLeft=4;spacingRight=4;overflow=hidden;rotatable=0;points=[[0,0.5],[1,0.5]];portConstraint=eastwest;whiteSpace=wrap;html=1;" parent="1" vertex="1">
          <mxGeometry x="920" y="760" width="240" height="26" as="geometry" />
        </mxCell>
        <mxCell id="F7IYBfTylmOodfcNdRUg-1" value="+ p_bStaOuterDoorOpened: BOOL" style="text;strokeColor=none;fillColor=none;align=left;verticalAlign=top;spacingLeft=4;spacingRight=4;overflow=hidden;rotatable=0;points=[[0,0.5],[1,0.5]];portConstraint=eastwest;whiteSpace=wrap;html=1;" parent="1" vertex="1">
          <mxGeometry x="920" y="830" width="240" height="26" as="geometry" />
        </mxCell>
        <mxCell id="oPAMQ83Vu1ZU0z_SrXca-1" value="EM_DoorInterface" style="swimlane;fontStyle=1;align=center;verticalAlign=top;childLayout=stackLayout;horizontal=1;startSize=26;horizontalStack=0;resizeParent=1;resizeParentMax=0;resizeLast=0;collapsible=1;marginBottom=0;whiteSpace=wrap;html=1;" parent="1" vertex="1">
          <mxGeometry x="1200" y="440" width="280" height="414" as="geometry">
            <mxRectangle x="360" y="520" width="90" height="30" as="alternateBounds" />
          </mxGeometry>
        </mxCell>
        <mxCell id="qCpFlhxXB7YeFsgFu3U--2" value="+ cmDockingClamps&lt;span style=&quot;background-color: initial;&quot;&gt;: CM_DockingClamps&lt;/span&gt;" style="text;strokeColor=none;fillColor=none;align=left;verticalAlign=top;spacingLeft=4;spacingRight=4;overflow=hidden;rotatable=0;points=[[0,0.5],[1,0.5]];portConstraint=eastwest;whiteSpace=wrap;html=1;" vertex="1" parent="oPAMQ83Vu1ZU0z_SrXca-1">
          <mxGeometry y="26" width="280" height="26" as="geometry" />
        </mxCell>
        <mxCell id="qCpFlhxXB7YeFsgFu3U--1" value="+ cmUnlockingPins&lt;span style=&quot;background-color: initial;&quot;&gt;: CM_UnlockingPins&lt;/span&gt;" style="text;strokeColor=none;fillColor=none;align=left;verticalAlign=top;spacingLeft=4;spacingRight=4;overflow=hidden;rotatable=0;points=[[0,0.5],[1,0.5]];portConstraint=eastwest;whiteSpace=wrap;html=1;" vertex="1" parent="oPAMQ83Vu1ZU0z_SrXca-1">
          <mxGeometry y="52" width="280" height="26" as="geometry" />
        </mxCell>
        <mxCell id="ruOWHuoKpJUfaFRuIKZH-1" value="" style="line;strokeWidth=1;fillColor=none;align=left;verticalAlign=middle;spacingTop=-1;spacingLeft=3;spacingRight=3;rotatable=0;labelPosition=right;points=[];portConstraint=eastwest;strokeColor=inherit;" vertex="1" parent="oPAMQ83Vu1ZU0z_SrXca-1">
          <mxGeometry y="78" width="280" height="8" as="geometry" />
        </mxCell>
        <mxCell id="oPAMQ83Vu1ZU0z_SrXca-16" value="+ p_bStaDocking&lt;span style=&quot;background-color: initial;&quot;&gt;Done: BOOL&lt;/span&gt;" style="text;strokeColor=none;fillColor=none;align=left;verticalAlign=top;spacingLeft=4;spacingRight=4;overflow=hidden;rotatable=0;points=[[0,0.5],[1,0.5]];portConstraint=eastwest;whiteSpace=wrap;html=1;" parent="oPAMQ83Vu1ZU0z_SrXca-1" vertex="1">
          <mxGeometry y="86" width="280" height="26" as="geometry" />
        </mxCell>
        <mxCell id="oPAMQ83Vu1ZU0z_SrXca-17" value="+ p_bStaUndockingDone: BOOL" style="text;strokeColor=none;fillColor=none;align=left;verticalAlign=top;spacingLeft=4;spacingRight=4;overflow=hidden;rotatable=0;points=[[0,0.5],[1,0.5]];portConstraint=eastwest;whiteSpace=wrap;html=1;" parent="oPAMQ83Vu1ZU0z_SrXca-1" vertex="1">
          <mxGeometry y="112" width="280" height="26" as="geometry" />
        </mxCell>
        <mxCell id="sl8G7y874t6e4OJ3e3ZW-1" value="" style="line;strokeWidth=1;fillColor=none;align=left;verticalAlign=middle;spacingTop=-1;spacingLeft=3;spacingRight=3;rotatable=0;labelPosition=right;points=[];portConstraint=eastwest;strokeColor=inherit;" vertex="1" parent="oPAMQ83Vu1ZU0z_SrXca-1">
          <mxGeometry y="138" width="280" height="8" as="geometry" />
        </mxCell>
        <mxCell id="oPAMQ83Vu1ZU0z_SrXca-2" value="+ m_Main(): BOOL" style="text;strokeColor=none;fillColor=none;align=left;verticalAlign=top;spacingLeft=4;spacingRight=4;overflow=hidden;rotatable=0;points=[[0,0.5],[1,0.5]];portConstraint=eastwest;whiteSpace=wrap;html=1;" parent="oPAMQ83Vu1ZU0z_SrXca-1" vertex="1">
          <mxGeometry y="146" width="280" height="26" as="geometry" />
        </mxCell>
        <mxCell id="oPAMQ83Vu1ZU0z_SrXca-12" value="+ m_DockBox(): BOOL" style="text;strokeColor=none;fillColor=none;align=left;verticalAlign=top;spacingLeft=4;spacingRight=4;overflow=hidden;rotatable=0;points=[[0,0.5],[1,0.5]];portConstraint=eastwest;whiteSpace=wrap;html=1;" parent="oPAMQ83Vu1ZU0z_SrXca-1" vertex="1">
          <mxGeometry y="172" width="280" height="26" as="geometry" />
        </mxCell>
        <mxCell id="oPAMQ83Vu1ZU0z_SrXca-13" value="+ m_UndockBox(): BOOL" style="text;strokeColor=none;fillColor=none;align=left;verticalAlign=top;spacingLeft=4;spacingRight=4;overflow=hidden;rotatable=0;points=[[0,0.5],[1,0.5]];portConstraint=eastwest;whiteSpace=wrap;html=1;" parent="oPAMQ83Vu1ZU0z_SrXca-1" vertex="1">
          <mxGeometry y="198" width="280" height="26" as="geometry" />
        </mxCell>
        <mxCell id="oPAMQ83Vu1ZU0z_SrXca-3" value="" style="line;strokeWidth=1;fillColor=none;align=left;verticalAlign=middle;spacingTop=-1;spacingLeft=3;spacingRight=3;rotatable=0;labelPosition=right;points=[];portConstraint=eastwest;strokeColor=inherit;" parent="oPAMQ83Vu1ZU0z_SrXca-1" vertex="1">
          <mxGeometry y="224" width="280" height="8" as="geometry" />
        </mxCell>
        <mxCell id="oPAMQ83Vu1ZU0z_SrXca-4" value="# _m_Init(): BOOL" style="text;strokeColor=none;fillColor=none;align=left;verticalAlign=top;spacingLeft=4;spacingRight=4;overflow=hidden;rotatable=0;points=[[0,0.5],[1,0.5]];portConstraint=eastwest;whiteSpace=wrap;html=1;" parent="oPAMQ83Vu1ZU0z_SrXca-1" vertex="1">
          <mxGeometry y="232" width="280" height="26" as="geometry" />
        </mxCell>
        <mxCell id="oPAMQ83Vu1ZU0z_SrXca-5" value="# _m_Inputs: BOOL" style="text;strokeColor=none;fillColor=none;align=left;verticalAlign=top;spacingLeft=4;spacingRight=4;overflow=hidden;rotatable=0;points=[[0,0.5],[1,0.5]];portConstraint=eastwest;whiteSpace=wrap;html=1;" parent="oPAMQ83Vu1ZU0z_SrXca-1" vertex="1">
          <mxGeometry y="258" width="280" height="26" as="geometry" />
        </mxCell>
        <mxCell id="oPAMQ83Vu1ZU0z_SrXca-6" value="# _m_Params: BOOL" style="text;strokeColor=none;fillColor=none;align=left;verticalAlign=top;spacingLeft=4;spacingRight=4;overflow=hidden;rotatable=0;points=[[0,0.5],[1,0.5]];portConstraint=eastwest;whiteSpace=wrap;html=1;" parent="oPAMQ83Vu1ZU0z_SrXca-1" vertex="1">
          <mxGeometry y="284" width="280" height="26" as="geometry" />
        </mxCell>
        <mxCell id="oPAMQ83Vu1ZU0z_SrXca-7" value="# _m_Hmi(): BOOL" style="text;strokeColor=none;fillColor=none;align=left;verticalAlign=top;spacingLeft=4;spacingRight=4;overflow=hidden;rotatable=0;points=[[0,0.5],[1,0.5]];portConstraint=eastwest;whiteSpace=wrap;html=1;" parent="oPAMQ83Vu1ZU0z_SrXca-1" vertex="1">
          <mxGeometry y="310" width="280" height="26" as="geometry" />
        </mxCell>
        <mxCell id="oPAMQ83Vu1ZU0z_SrXca-8" value="# _m_Devices(): BOOL" style="text;strokeColor=none;fillColor=none;align=left;verticalAlign=top;spacingLeft=4;spacingRight=4;overflow=hidden;rotatable=0;points=[[0,0.5],[1,0.5]];portConstraint=eastwest;whiteSpace=wrap;html=1;" parent="oPAMQ83Vu1ZU0z_SrXca-1" vertex="1">
          <mxGeometry y="336" width="280" height="26" as="geometry" />
        </mxCell>
        <mxCell id="oPAMQ83Vu1ZU0z_SrXca-9" value="# _m_Alarms(): BOOL" style="text;strokeColor=none;fillColor=none;align=left;verticalAlign=top;spacingLeft=4;spacingRight=4;overflow=hidden;rotatable=0;points=[[0,0.5],[1,0.5]];portConstraint=eastwest;whiteSpace=wrap;html=1;" parent="oPAMQ83Vu1ZU0z_SrXca-1" vertex="1">
          <mxGeometry y="362" width="280" height="26" as="geometry" />
        </mxCell>
        <mxCell id="oPAMQ83Vu1ZU0z_SrXca-10" value="# _m_Outputs: BOOL" style="text;strokeColor=none;fillColor=none;align=left;verticalAlign=top;spacingLeft=4;spacingRight=4;overflow=hidden;rotatable=0;points=[[0,0.5],[1,0.5]];portConstraint=eastwest;whiteSpace=wrap;html=1;" parent="oPAMQ83Vu1ZU0z_SrXca-1" vertex="1">
          <mxGeometry y="388" width="280" height="26" as="geometry" />
        </mxCell>
        <mxCell id="oPAMQ83Vu1ZU0z_SrXca-11" value="Extends" style="endArrow=block;endSize=16;endFill=0;html=1;rounded=0;edgeStyle=orthogonalEdgeStyle;" parent="1" source="oPAMQ83Vu1ZU0z_SrXca-1" target="MQBi__SkSl7cDb9nEH-L-1" edge="1">
          <mxGeometry x="-0.4872" width="160" relative="1" as="geometry">
            <mxPoint x="1070" y="402" as="sourcePoint" />
            <mxPoint x="1280" y="362" as="targetPoint" />
            <Array as="points">
              <mxPoint x="1280" y="400" />
              <mxPoint x="1040" y="400" />
            </Array>
            <mxPoint as="offset" />
          </mxGeometry>
        </mxCell>
        <mxCell id="oPAMQ83Vu1ZU0z_SrXca-18" value="+ p_bStaOuterDoorClosed&lt;span style=&quot;background-color: initial;&quot;&gt;: BOOL&lt;/span&gt;" style="text;strokeColor=none;fillColor=none;align=left;verticalAlign=top;spacingLeft=4;spacingRight=4;overflow=hidden;rotatable=0;points=[[0,0.5],[1,0.5]];portConstraint=eastwest;whiteSpace=wrap;html=1;" parent="1" vertex="1">
          <mxGeometry x="920" y="850" width="240" height="26" as="geometry" />
        </mxCell>
        <mxCell id="oPAMQ83Vu1ZU0z_SrXca-19" value="+ p_bStaCleanroom&lt;span style=&quot;background-color: initial;&quot;&gt;DoorOpened: BOOL&lt;/span&gt;" style="text;strokeColor=none;fillColor=none;align=left;verticalAlign=top;spacingLeft=4;spacingRight=4;overflow=hidden;rotatable=0;points=[[0,0.5],[1,0.5]];portConstraint=eastwest;whiteSpace=wrap;html=1;" parent="1" vertex="1">
          <mxGeometry x="920" y="870" width="240" height="26" as="geometry" />
        </mxCell>
        <mxCell id="oPAMQ83Vu1ZU0z_SrXca-20" value="+ p_bStaCleanroomDoorClosed&lt;span style=&quot;background-color: initial;&quot;&gt;: BOOL&lt;/span&gt;" style="text;strokeColor=none;fillColor=none;align=left;verticalAlign=top;spacingLeft=4;spacingRight=4;overflow=hidden;rotatable=0;points=[[0,0.5],[1,0.5]];portConstraint=eastwest;whiteSpace=wrap;html=1;" parent="1" vertex="1">
          <mxGeometry x="920" y="890" width="240" height="26" as="geometry" />
        </mxCell>
        <mxCell id="oPAMQ83Vu1ZU0z_SrXca-21" value="+ m_ReleaseLockCleanroomDoor&lt;span style=&quot;background-color: initial;&quot;&gt;(): BOOL&lt;/span&gt;" style="text;strokeColor=none;fillColor=none;align=left;verticalAlign=top;spacingLeft=4;spacingRight=4;overflow=hidden;rotatable=0;points=[[0,0.5],[1,0.5]];portConstraint=eastwest;whiteSpace=wrap;html=1;" parent="1" vertex="1">
          <mxGeometry x="920" y="780" width="240" height="26" as="geometry" />
        </mxCell>
        <mxCell id="oPAMQ83Vu1ZU0z_SrXca-22" value="+ p_bStaCleanroom&lt;span style=&quot;background-color: initial;&quot;&gt;LockReleased: BOOL&lt;/span&gt;" style="text;strokeColor=none;fillColor=none;align=left;verticalAlign=top;spacingLeft=4;spacingRight=4;overflow=hidden;rotatable=0;points=[[0,0.5],[1,0.5]];portConstraint=eastwest;whiteSpace=wrap;html=1;" parent="1" vertex="1">
          <mxGeometry x="920" y="910" width="240" height="26" as="geometry" />
        </mxCell>
        <mxCell id="oPAMQ83Vu1ZU0z_SrXca-23" value="+ p_bStaCleanroomLockApplied&lt;span style=&quot;background-color: initial;&quot;&gt;: BOOL&lt;/span&gt;" style="text;strokeColor=none;fillColor=none;align=left;verticalAlign=top;spacingLeft=4;spacingRight=4;overflow=hidden;rotatable=0;points=[[0,0.5],[1,0.5]];portConstraint=eastwest;whiteSpace=wrap;html=1;" parent="1" vertex="1">
          <mxGeometry x="920" y="930" width="240" height="26" as="geometry" />
        </mxCell>
      </root>
    </mxGraphModel>
  </diagram>
  <diagram id="JEoK0bFqbxrnBAZ1u7Q5" name="Page-5">
    <mxGraphModel grid="1" page="1" gridSize="10" guides="1" tooltips="1" connect="1" arrows="1" fold="1" pageScale="1" pageWidth="850" pageHeight="1100" math="0" shadow="0">
      <root>
        <mxCell id="0" />
        <mxCell id="1" parent="0" />
      </root>
    </mxGraphModel>
  </diagram>
</mxfile>
